<?xml version="1.0" standalone="no"?>
<!DOCTYPE svg PUBLIC "-//W3C//DTD SVG 1.1//EN" "http://www.w3.org/Graphics/SVG/1.1/DTD/svg11.dtd" >
<svg xmlns="http://www.w3.org/2000/svg">
<metadata>
This is a custom SVG webfont generated by Font Squirrel.
Copyright   : Copyright c 2009 by  2009 Designed by Svetoslav Simov  Fontfabric Inc All rights reserved
Designer    : Svetoslav Simov
Foundry     :  2009 Designed by Svetoslav Simov  Fontfabric Inc
</metadata>
<defs>
<font id="UniSansThinRegular" horiz-adv-x="1034" >
<font-face units-per-em="2048" ascent="1548" descent="-500" />
<missing-glyph horiz-adv-x="614" />
<glyph unicode=" "  horiz-adv-x="614" />
<glyph unicode="&#x09;" horiz-adv-x="614" />
<glyph unicode="&#xa0;" horiz-adv-x="614" />
<glyph unicode="!" horiz-adv-x="552" d="M186 61.5q0 26.5 18.5 45t45 18.5t45 -18.5t18.5 -45t-18.5 -45t-45 -18.5t-45 18.5t-18.5 45zM223 270v1182h51v-1182h-51z" />
<glyph unicode="&#x22;" horiz-adv-x="530" d="M160 1090v360h51l-25 -360h-26zM348 1090v360h51l-24 -360h-27z" />
<glyph unicode="#" horiz-adv-x="1464" d="M84 489l10 41h332l117 400h-377l12 43h379l141 479h47l-143 -479h412l139 479h51l-145 -479h334l-15 -43h-336l-114 -400h379l-13 -41h-379l-147 -489h-49l149 489h-409l-148 -489h-49l150 489h-328zM471 530h412l116 400h-411z" />
<glyph unicode="$" horiz-adv-x="1165" d="M90 227l47 21q66 -96 178.5 -148.5t239.5 -56.5v676q-76 16 -132 31.5t-123 47t-107.5 70.5t-67.5 102q-23 54 -23 120v20q6 166 137.5 257t315.5 95v154h41v-154q301 -10 424 -223l-47 -18q-51 88 -153.5 138t-223.5 54v-651q80 -16 140.5 -33.5t126 -50.5t107.5 -75 t66 -106q20 -52 20 -113q0 -15 -1 -32q-12 -162 -144.5 -256t-314.5 -100v-172h-41v170q-139 4 -264 61t-201 172zM154 1110q-1 -12 -1 -24q0 -126 98 -196q108 -77 304 -120v643q-164 -4 -277.5 -78.5t-123.5 -224.5zM596 43q156 6 269.5 85t133.5 224q1 12 1 24 q0 57 -17 103q-20 55 -54 91t-94.5 65t-111.5 43t-127 33v-668z" />
<glyph unicode="%" horiz-adv-x="1452" d="M59 1079q0 174 78 270.5t205 96.5q133 0 208 -97.5t75 -273.5q0 -170 -79 -269t-204 -99q-135 0 -209 96t-74 276zM119 1079q0 -168 53 -242.5t170 -74.5q225 0 225 313q0 317 -227 318q-221 -1 -221 -314zM170 -72l1008 1594l41 -25l-1006 -1595q-8 4 -22.5 14t-20.5 12 zM760 358q0 174 77.5 270.5t204.5 96.5q133 0 208 -97.5t75 -273.5q0 -170 -79 -269t-204 -99q-135 0 -208.5 96t-73.5 276zM815 358q0 -168 54.5 -242.5t170.5 -74.5q227 0 228 311q0 317 -230 318q-223 -1 -223 -312z" />
<glyph unicode="&#x26;" horiz-adv-x="1243" d="M113 365q0 248 338 446q-186 221 -187 350q0 131 95.5 212t228.5 81q115 0 200.5 -78t85.5 -192q0 -123 -80.5 -206t-220.5 -155l-47 -28l416 -457l127 201l35 -19l-129 -211l225 -256h-59l-189 211q-100 -135 -203.5 -203.5t-236.5 -68.5q-170 0 -284.5 102.5 t-114.5 270.5zM164 369q0 -154 97 -244t267 -90q213 0 392 258l-439 489q-317 -184 -317 -413zM315 1165q0 -131 181 -336q158 80 243.5 158t85.5 189q0 102 -68.5 167.5t-174.5 65.5q-111 0 -189 -70t-78 -174z" />
<glyph unicode="'" horiz-adv-x="380" d="M158 1087v363h55l-16 -363h-39z" />
<glyph unicode="(" horiz-adv-x="532" d="M154 702q0 469 260 859l37 -29q-244 -356 -244 -834q0 -475 254 -839l-39 -23q-268 385 -268 866z" />
<glyph unicode=")" horiz-adv-x="501" d="M39 1511l33 21l-2 -2q2 0 4 2q4 4 6 4q264 -389 264 -893q0 -496 -256 -868l-43 26q244 373 244 838q0 473 -250 872z" />
<glyph unicode="*" horiz-adv-x="847" d="M88 1200q2 6 4 20.5t4 20.5l312 -104q0 49 -2.5 156.5t-2.5 158.5h41l-4 -317q88 27 149 48l100 37q40 15 52 19l13 -41l-301 -94l194 -266l-33 -23l-192 266q-31 -45 -99.5 -137t-93.5 -129l-32 27l202 262q-57 16 -169.5 52t-141.5 44z" />
<glyph unicode="+" horiz-adv-x="1169" d="M90 674v47h473v463h45v-463h457v-47h-457v-465h-45v465h-473z" />
<glyph unicode="," horiz-adv-x="475" d="M104 -248l113 332h72l-139 -332h-46z" />
<glyph unicode="-" horiz-adv-x="735" d="M92 590v49h551v-49h-551z" />
<glyph unicode="." horiz-adv-x="411" d="M119 57.5q0 26.5 18.5 45t45 18.5t45 -18.5t18.5 -45t-18.5 -45t-45 -18.5t-45 18.5t-18.5 45z" />
<glyph unicode="/" horiz-adv-x="757" d="M66 -18l598 1499l36 -13l-591 -1499q-39 11 -43 13z" />
<glyph unicode="0" horiz-adv-x="1230" d="M129 373v702q0 127 76 217t183.5 130t229.5 40q121 0 228.5 -40t183.5 -130t76 -217v-702q0 -184 -147.5 -285.5t-340 -101.5t-341 101.5t-148.5 285.5zM180 1075v-702q0 -170 132 -253t306 -83q109 0 203 30.5t164 109.5t70 196v702q0 117 -70 197t-164 109.5t-203 29.5 q-111 0 -205 -29.5t-163.5 -109.5t-69.5 -197z" />
<glyph unicode="1" horiz-adv-x="641" d="M70 1126l297 324h69v-1450h-49v1399l-285 -301q-6 4 -9 7t-6 5t-7 6h2z" />
<glyph unicode="2" horiz-adv-x="1116" d="M86 47l698 725q160 156 160 311q0 135 -108.5 229.5t-284.5 100.5q-12 0 -24 1q-256 0 -365 -212l-45 21q115 240 436 241q193 -2 318.5 -111.5t125.5 -271.5q0 -178 -174 -348l-659 -682h835v-51h-890z" />
<glyph unicode="3" horiz-adv-x="1155" d="M90 209l43 27q139 -193 414 -193q178 0 309 94t131 260q0 184 -103.5 275.5t-291.5 89.5h-139v49h139q152 0 241 70.5t89 218t-114 226.5t-267 79q-244 0 -351 -158l-40 21q119 184 395 184q174 0 300 -91t126 -261q0 -219 -203 -307q154 -55 212 -153.5t58 -244.5 q-2 -127 -74.5 -220t-182 -137t-234.5 -44q-312 0 -457 215z" />
<glyph unicode="4" horiz-adv-x="1101" d="M43 469l799 981h71v-995h121v-47h-121v-408h-51v408h-786zM94 455h768l2 946z" />
<glyph unicode="5" horiz-adv-x="1185" d="M117 203l49 24q57 -86 166.5 -135t230.5 -49q174 0 309.5 107.5t135.5 277.5v84q0 170 -126 271.5t-304 101.5q-213 0 -400 -94q-2 0 -10 -1.5t-12 -1.5v662h827v-47h-776v-547q186 82 371 78q193 -2 336 -112.5t145 -307.5v-86q-2 -131 -75 -233.5t-184.5 -153.5 t-236.5 -51q-141 0 -259.5 53.5t-186.5 159.5z" />
<glyph unicode="6" horiz-adv-x="1265" d="M143 373v698q0 182 150 286q147 101 346 101h8q313 0 438 -196l-47 -25q-106 172 -391 172q-188 0 -320 -89t-132 -251v-414q129 225 452 226q203 -2 348.5 -103.5t145.5 -283.5v-121q0 -182 -146.5 -284.5t-347.5 -102.5h-12q-122 0 -228 40q-112 42 -187 133t-77 214z M195 375q0 -162 132 -251t320 -89q184 0 313.5 89t129.5 251v117q0 162 -129.5 250.5t-313.5 88.5q-188 0 -320 -89t-132 -250v-117z" />
<glyph unicode="7" horiz-adv-x="976" d="M59 1401v49h859l28 -49l-766 -1401h-57l764 1401h-828z" />
<glyph unicode="8" horiz-adv-x="1185" d="M84 391q0 303 291 391q-223 74 -223 322q2 166 124.5 259t294.5 93h39q170 0 295 -93t125 -259q0 -240 -221 -320q289 -80 291 -393q-4 -188 -148.5 -299.5t-341.5 -111.5h-39q-195 0 -340 111.5t-147 299.5zM133 393q0 -174 134 -270t304 -96h39q170 0 304.5 96 t134.5 270q0 369 -439 369h-39q-438 0 -438 -369zM199 1104q0 -301 372 -301h39q373 0 373 301q0 150 -108.5 228.5t-264.5 78.5h-39q-156 0 -264 -78.5t-108 -228.5z" />
<glyph unicode="9" horiz-adv-x="1247" d="M106 956v111q0 182 146.5 284.5t347.5 102.5h8q200 0 345 -99q148 -101 151 -288v-686q0 -182 -150 -286q-147 -101 -346 -101h-8q-305 0 -436 205l49 24q111 -180 387 -180q188 0 320.5 87t132.5 249v399q-86 -129 -198 -169t-255 -40q-203 2 -348.5 103.5t-145.5 283.5 zM158 958q0 -162 129 -251t313 -89q188 0 321.5 89.5t133.5 250.5v107q0 162 -133.5 251t-321.5 89q-184 0 -313 -89t-129 -251v-107z" />
<glyph unicode=":" horiz-adv-x="491" d="M178 116.5q0 26.5 18.5 45t45 18.5t45 -18.5t18.5 -45t-18.5 -45t-45 -18.5t-45 18.5t-18.5 45zM178 891q0 27 18.5 45t45 18t45 -18t18.5 -45t-18.5 -45.5t-45 -18.5t-45 18.5t-18.5 45.5z" />
<glyph unicode=";" horiz-adv-x="507" d="M133 -203l90 295h84l-123 -295h-51zM188 860.5q0 26.5 18.5 45t45.5 18.5t45 -18.5t18 -45t-18 -45t-45 -18.5t-45.5 18.5t-18.5 45z" />
<glyph unicode="&#x3c;" horiz-adv-x="911" d="M127 594v53l659 389v-53l-614 -362l614 -359v-51z" />
<glyph unicode="=" horiz-adv-x="1093" d="M178 455v45h764v-45h-764zM178 737v45h764v-45h-764z" />
<glyph unicode="&#x3e;" horiz-adv-x="983" d="M188 211v47l623 363l-623 362v53l666 -389v-53z" />
<glyph unicode="?" horiz-adv-x="948" d="M68 1319q145 141 340 141q174 0 301 -102q125 -101 125 -277q0 -188 -125 -306q-123 -116 -297 -134q-8 -252 -13 -395h-36l-9 430q180 12 308 122q125 108 124 274q0 163 -114 253q-113 88 -269 88q-76 0 -160.5 -35t-146.5 -88zM326 49.5q0 22.5 16 38.5t38.5 16 t39 -16t16.5 -38.5t-16.5 -38t-39 -15.5t-38.5 15.5t-16 38z" />
<glyph unicode="@" horiz-adv-x="1536" d="M86 616q0 309 207 515t506 206q283 0 470 -160.5t187 -416.5q0 -246 -145 -407q-137 -151 -277 -151q-9 0 -18 1q-100 6 -101 104q0 28 9 64q-125 -174 -297 -174q-113 0 -174.5 75.5t-61.5 188.5q0 217 122 386t316 169q207 0 226 -217l10 -2l61 174h43l-180 -537 q-10 -29 -14 -42t-10.5 -40.5t-3 -42t9.5 -31t24.5 -23.5t44.5 -7q141 0 256 155.5t115 356.5q0 240 -179 387t-429 147q-295 0 -484.5 -194.5t-189.5 -483.5q0 -141 45 -259.5t122 -197.5t182.5 -127t224.5 -49h7q117 0 244 37l13 -38q-137 -39 -266 -40h-5q-125 0 -234 50 q-112 51 -196 134t-132 210.5t-48 279.5zM432 465q0 -100 56.5 -163.5t148.5 -63.5q115 0 212 106.5t144 249.5q23 86 27 174v13q0 80 -47 138q-47 57 -134 56h-18h-4q-175 0 -279 -163q-106 -165 -106 -347z" />
<glyph unicode="A" horiz-adv-x="1267" d="M53 0l529 1464h96l530 -1464h-55l-190 518h-670l-184 -518h-56zM311 569h635l-309 871h-12z" />
<glyph unicode="B" horiz-adv-x="1290" d="M190 0v1450h531q166 0 272.5 -93t106.5 -259q0 -207 -146 -293l-63 -35l72 -25q111 -47 159 -146q47 -95 47 -203q0 -396 -450 -396h-529zM242 49h479h14q384 0 383 340q0 354 -388 354h-9h-479v-694zM242 793h479q150 0 240 75.5t90 227.5q0 147 -92.5 227t-237.5 80 h-479v-610z" />
<glyph unicode="C" horiz-adv-x="1179" d="M129 1057q0 188 153.5 296.5t360.5 108.5q143 0 266 -54t185 -155l-45 -32q-55 90 -169 141t-243 51q-184 0 -320.5 -94t-136.5 -262v-660q0 -168 136.5 -261t320.5 -93q129 0 241.5 47t170.5 135q14 -8 45 -22q-61 -100 -187.5 -155.5t-269.5 -55.5q-205 0 -356.5 107.5 t-151.5 297.5v660z" />
<glyph unicode="D" horiz-adv-x="1243" d="M170 0v1450h489q205 0 336 -97.5t131 -291.5v-674q0 -195 -131 -291t-336 -96h-489zM221 51h438q184 0 300 83t116 253v674q0 172 -115.5 255t-300.5 83h-438v-1348z" />
<glyph unicode="E" horiz-adv-x="1171" d="M197 0v1450h862v-51h-811v-649h749v-56h-749v-643h811v-51h-862z" />
<glyph unicode="F" horiz-adv-x="1105" d="M184 0v1450h836v-51h-784v-676h712v-51h-712v-672h-52z" />
<glyph unicode="G" horiz-adv-x="1337" d="M125 1055q0 188 151.5 296.5t356.5 108.5q141 0 263 -55t185 -156l-47 -30q-53 94 -162.5 142t-242.5 48q-184 0 -318.5 -93t-134.5 -261v-649q0 -172 135 -267.5t322 -95.5q184 0 321.5 96.5t137.5 266.5v260h-445v49h496v-309q0 -195 -151.5 -303.5t-358.5 -108.5 t-357.5 108.5t-150.5 303.5v649z" />
<glyph unicode="H" horiz-adv-x="1409" d="M195 0v1450h51v-700h915v700h51v-1450h-51v698h-915v-698h-51z" />
<glyph unicode="I" horiz-adv-x="475" d="M199 0v1450h51v-1450h-51z" />
<glyph unicode="J" horiz-adv-x="1185" d="M43 283l51 16q43 -129 160 -194.5t250 -65.5q174 0 304 93t130 261v1010h-483v47h534v-1057q0 -188 -145.5 -295.5t-341.5 -107.5q-158 0 -287 77t-172 216z" />
<glyph unicode="K" horiz-adv-x="1173" d="M188 0v1450h52v-881l858 881h65l-669 -698l669 -752h-59l-647 715l-217 -217v-498h-52z" />
<glyph unicode="L" horiz-adv-x="1021" d="M190 0v1450h52v-1399h725v-51h-777z" />
<glyph unicode="M" horiz-adv-x="1632" d="M190 0v1450h109l518 -1174l516 1174h109v-1450h-51v1413h-19l-520 -1184h-70l-522 1170l-18 -2v-1397h-52z" />
<glyph unicode="N" horiz-adv-x="1411" d="M195 0v1450h79l863 -1401v1401h51v-1450h-88l-850 1384l-2 -1384h-53z" />
<glyph unicode="O" horiz-adv-x="1396" d="M158 401v650q0 193 159.5 301t378.5 108t380 -108.5t161 -300.5v-650q0 -193 -161 -302t-380 -109t-378.5 109t-159.5 302zM209 401q0 -172 144.5 -266t343 -94t343 94t146.5 266v650q0 178 -144.5 269t-347.5 91q-201 -2 -343 -93t-142 -267v-650z" />
<glyph unicode="P" horiz-adv-x="1261" d="M199 0v1450h512q209 -2 326.5 -134t117.5 -306q0 -172 -116.5 -301t-325.5 -131h-463v-578h-51zM250 629h461q188 0 290.5 113.5t102.5 269t-104.5 272.5t-288.5 119h-461v-774z" />
<glyph unicode="Q" horiz-adv-x="1398" d="M160 403v650q0 193 159.5 301t378.5 108q217 0 378 -108.5t161 -300.5v-650q0 -90 -27.5 -148t-89.5 -122l109 -129l-39 -27l-107 125q-164 -111 -385 -110q-219 0 -378.5 109t-159.5 302zM211 403q-2 -168 143.5 -265t343.5 -97q197 0 357 102l-127 160l39 29l120 -158 q98 80 99 229v650q0 172 -144.5 266t-343.5 94q-201 -2 -344 -93t-143 -267v-650z" />
<glyph unicode="R" horiz-adv-x="1277" d="M197 0v1436h512q442 0 450 -394q0 -213 -117.5 -304t-330.5 -91h-78l489 -647h-59l-488 647h-329v-647h-49zM246 692h465q205 0 302 81t97 267q0 348 -386 349h-13h-465v-697z" />
<glyph unicode="S" horiz-adv-x="1218" d="M135 227l47 21q70 -98 186.5 -151.5t247.5 -53.5q164 0 286 79t142 230l2 30q0 56 -19 102q-24 58 -59.5 93t-102 65t-118 43t-135.5 32q-78 16 -134 31.5t-124.5 47t-111.5 70.5t-71 102q-24 54 -24 122v20q6 170 142.5 261t324.5 91q324 0 451 -223l-47 -18 q-55 94 -165 143t-239 49q-168 0 -286.5 -74.5t-128.5 -228.5q-1 -12 -1 -24q0 -130 105 -201q115 -78 322 -119q82 -16 143 -33.5t131 -50.5t113 -75t68 -107q21 -53 21 -117q0 -15 -1 -31q-12 -166 -154.5 -262t-333.5 -96q-143 0 -271 58t-206 175z" />
<glyph unicode="T" horiz-adv-x="1122" d="M55 1399v51h1018v-51h-483v-1399h-51v1399h-484z" />
<glyph unicode="U" horiz-adv-x="1400" d="M190 1450h52v-1042q0 -174 135 -271.5t321 -97.5q184 0 321.5 97t137.5 272v1042h51v-1042q0 -197 -151.5 -307.5t-358.5 -110.5q-205 0 -356.5 110.5t-151.5 307.5v1042z" />
<glyph unicode="V" horiz-adv-x="1243" d="M35 1450h57l522 -1438h13l508 1440h55l-516 -1462h-109z" />
<glyph unicode="W" horiz-adv-x="1892" d="M45 1450h55l412 -1425h10l389 1208h64l391 -1213h12l406 1430h55l-422 -1454h-94l-379 1188l-381 -1188h-94z" />
<glyph unicode="X" horiz-adv-x="1206" d="M88 0l477 723l-475 727h57l449 -680l446 680h60l-477 -727l263 -397l212 -326h-60l-444 688l-444 -688h-64z" />
<glyph unicode="Y" horiz-adv-x="1167" d="M55 1450h62l461 -817l475 817h63l-514 -875v-575h-51v575z" />
<glyph unicode="Z" horiz-adv-x="1120" d="M55 25l932 1380h-891v45h942l19 -27l-932 -1378h903v-45h-952z" />
<glyph unicode="[" horiz-adv-x="481" d="M174 -246v1784h238v-43h-189v-1696h189v-45h-238z" />
<glyph unicode="\" horiz-adv-x="741" d="M16 1518l39 14l633 -1577l-45 -14z" />
<glyph unicode="]" horiz-adv-x="430" d="M49 -207h184v1696h-184v49h238v-1796h-238v51z" />
<glyph unicode="^" horiz-adv-x="1116" d="M143 926l361 524h57q217 -319 373 -524h-55l-347 489l-333 -489h-56z" />
<glyph unicode="_" horiz-adv-x="1024" d="M35 -43h954v-45h-954v45z" />
<glyph unicode="`" horiz-adv-x="430" d="M80 1450h80l123 -211h-52z" />
<glyph unicode="a" d="M127 315q2 158 111.5 244t267.5 86q164 0 311 -65v194q0 129 -91 191.5t-228 62.5q-162 0 -271 -96l-26 29q104 106 299 110h15q140 0 240 -74q105 -78 105 -223v-737q-172 -56 -370 -56q-14 0 -27 1q-143 2 -239.5 94t-96.5 239zM172 315q0 -139 83 -215.5t214 -79.5h16 q148 0 301 37l31 11v471q-160 66 -315 65q-139 0 -233.5 -73t-96.5 -216z" />
<glyph unicode="b" horiz-adv-x="1026" d="M156 1450h45v-455q172 80 323 80h7q143 0 251 -82q111 -84 111 -227v-465q0 -145 -108.5 -231t-254.5 -90q-223 0 -374 47v1423zM201 63q121 -41 329 -40q123 0 220.5 78.5t95.5 195.5v469q2 119 -94.5 190.5t-225.5 73.5q-139 0 -305 -76l-20 -12v-879z" />
<glyph unicode="c" horiz-adv-x="905" d="M133 295v465q0 145 108.5 227t258.5 82q215 0 313 -137l-35 -23q-84 115 -278 115q-133 0 -227.5 -67.5t-94.5 -192.5v-469q0 -129 94.5 -196.5t227.5 -67.5q96 0 178 39t119 112q12 -4 23 -10l20 -10q-45 -84 -138.5 -130t-201.5 -46q-150 0 -258.5 82t-108.5 227z" />
<glyph unicode="d" horiz-adv-x="1046" d="M152 291v473q0 147 109 230q107 81 252 81h7q176 0 324 -67v442h47v-1415q-172 -53 -377 -53q-154 4 -258 78.5t-104 230.5zM199 291q-2 -127 90 -193.5t225 -66.5q193 0 330 45v878q-168 74 -326 74q-133 -2 -227 -69.5t-92 -192.5v-475z" />
<glyph unicode="e" horiz-adv-x="1005" d="M137 301v461q0 147 109.5 228t259 81t258 -82t108.5 -227v-273h-688v-188q-2 -129 92.5 -195.5t229.5 -66.5q205 0 287 129q10 -4 21 -11t20 -12q-43 -76 -132.5 -114.5t-195.5 -38.5q-150 0 -259.5 82t-109.5 227zM184 532h643v230v4q0 125 -95 193.5t-226 68.5 q-135 0 -229.5 -67.5t-92.5 -194.5v-234z" />
<glyph unicode="f" horiz-adv-x="536" d="M164 0v1155q0 135 81 213t208 90v-45q-111 -10 -177.5 -76.5t-66.5 -181.5v-289h229v-45h-229v-821h-45z" />
<glyph unicode="g" horiz-adv-x="1026" d="M143 307v457q0 141 105.5 222t251.5 83q154 0 370 -74v-1042q0 -145 -106.5 -222t-253.5 -77q-186 0 -301 98l31 31q119 -86 272 -86q131 0 223 64.5t92 189.5v129q-162 -80 -319 -80h-7q-143 0 -249 81q-109 83 -109 226zM188 307q-2 -123 91.5 -191.5t224.5 -72.5 q123 2 303 76l20 14v825q-160 66 -327 66q-129 0 -221.5 -68.5t-90.5 -189.5v-459z" />
<glyph unicode="h" horiz-adv-x="1081" d="M176 0v1450h45v-459q150 70 322 70q147 4 256.5 -79t109.5 -228v-754h-45v754q0 125 -94 192.5t-225 69.5q-154 0 -324 -70v-946h-45z" />
<glyph unicode="i" horiz-adv-x="440" d="M166 1331.5q0 22.5 17.5 40t40 17.5t40 -17.5t17.5 -40t-17.5 -40t-40 -17.5t-40 17.5t-17.5 40zM199 0v1067h47v-1067h-47z" />
<glyph unicode="j" horiz-adv-x="448" d="M-29 -313q231 20 232 268v1114h45v-1114q0 -141 -75 -222t-202 -91v45zM168 1351.5q0 22.5 17.5 40t40 17.5t40 -17.5t17.5 -40t-17.5 -40t-40 -17.5t-40 17.5t-17.5 40z" />
<glyph unicode="k" horiz-adv-x="966" d="M174 0v1450h45v-1026l610 637h56l-449 -477l453 -584h-51l-435 551l-184 -184v-367h-45z" />
<glyph unicode="l" horiz-adv-x="475" d="M166 293v1157h45v-1157q0 -248 209 -256v-45q-254 22 -254 301z" />
<glyph unicode="m" horiz-adv-x="1683" d="M180 0v991q119 80 314 80q246 0 342 -168q59 94 131.5 127t175.5 37h20q139 0 237 -81q105 -87 105 -243v-743h-47v739q0 137 -92 209t-219 72q-117 0 -202 -59.5t-87 -167.5v-793h-45v793q-2 109 -101.5 171t-232.5 62q-147 0 -252 -68v-958h-47z" />
<glyph unicode="n" horiz-adv-x="1089" d="M178 0v1010q178 63 373 63q150 -4 254 -82t104 -227v-764h-45v764q0 127 -94 194.5t-219 67.5q-197 0 -328 -55v-971h-45z" />
<glyph unicode="o" horiz-adv-x="1030" d="M147 297v469q0 145 110 227t259 84q150 -2 258.5 -84t108.5 -227v-469q0 -145 -108.5 -227t-258.5 -84q-150 2 -259.5 84t-109.5 227zM193 297q0 -131 96 -198.5t227 -67.5q129 0 225.5 67.5t96.5 198.5v469q0 129 -96.5 196.5t-225.5 67.5q-131 0 -227 -67.5t-96 -196.5 v-469z" />
<glyph unicode="p" d="M154 -393v1423q152 47 374 47q145 -4 254 -90t109 -231v-463q0 -143 -111 -227q-108 -82 -251 -82h-7q-152 0 -323 79v-456h-45zM199 117l20 -13q166 -76 305 -75q129 2 225.5 73.5t94.5 190.5v467q2 117 -95.5 195.5t-220.5 78.5q-209 0 -329 -41v-876z" />
<glyph unicode="q" d="M141 293v463q0 145 108.5 231t254.5 90q223 0 375 -47v-1423h-45v456q-172 -80 -324 -79h-7q-143 0 -251 82q-111 84 -111 227zM188 293q-2 -119 94.5 -190.5t225.5 -73.5q139 0 305 75l21 13v876q-121 41 -330 41q-123 0 -220.5 -78.5t-95.5 -195.5v-467z" />
<glyph unicode="r" horiz-adv-x="628" d="M162 0v762q0 121 75.5 200.5t192.5 102.5q33 6 59 6l78 -4v-43q-121 0 -137 -4q-94 -23 -158.5 -90.5t-64.5 -167.5v-762h-45z" />
<glyph unicode="s" horiz-adv-x="864" d="M92 164l37 26q133 -164 326 -157q98 2 186 63.5t86 173.5q0 199 -274 252q-70 12 -121 28.5t-105.5 46.5t-83 80t-28.5 118q0 131 97 202.5t230 71.5q170 0 275 -100q-6 -6 -15.5 -16.5t-13.5 -14.5q-94 90 -248 90q-113 0 -195.5 -60.5t-86.5 -172.5q0 -51 23.5 -91 t47 -60.5t78.5 -39t73.5 -22.5l80.5 -17q133 -23 221 -93.5t90 -201.5q0 -127 -94 -202.5t-223 -79.5q-228 -6 -363 176z" />
<glyph unicode="t" horiz-adv-x="563" d="M172 307v1143h45v-389h229v-45h-229v-709q0 -125 93 -195.5t194 -70.5v-43q-135 0 -233.5 86t-98.5 223z" />
<glyph unicode="u" horiz-adv-x="1058" d="M166 295v768h45v-768q0 -123 96 -193.5t217 -70.5q190 0 328 59v973h45v-1012q-184 -66 -373 -65q-147 4 -252.5 85t-105.5 224z" />
<glyph unicode="v" horiz-adv-x="956" d="M61 1061h52l368 -1030l369 1030h49l-379 -1061h-78z" />
<glyph unicode="w" horiz-adv-x="1458" d="M63 1061h56l299 -1032h6l264 1032h80l268 -1030h6l299 1030h56l-310 -1061h-96l-262 1014h-4l-256 -1014h-96z" />
<glyph unicode="x" horiz-adv-x="923" d="M82 0l346 530l-346 531h57l320 -498l319 498h56l-345 -531l342 -530h-53l-319 498l-322 -498h-55z" />
<glyph unicode="y" horiz-adv-x="1062" d="M162 297v764h47v-764q-2 -123 92 -191.5t225 -72.5q115 2 301 78l21 14v936h45v-1108q0 -145 -106.5 -222t-254.5 -77q-188 0 -301 98l33 35q121 -88 271 -88q123 0 218 65.5t95 186.5v121q-166 -82 -318 -82h-7q-143 0 -251 81q-110 83 -110 226z" />
<glyph unicode="z" horiz-adv-x="882" d="M55 43l684 977h-649v41h686q2 -4 21 -35l-691 -983h685v-43h-707z" />
<glyph unicode="{" horiz-adv-x="559" d="M109 621v36q145 37 145 347v296q0 119 29.5 175.5t134.5 56.5h47v-43h-45q-82 0 -100.5 -40t-18.5 -151v-299v-14q0 -145 -39 -233q-41 -92 -92 -113q129 -55 129 -356v-301q0 -92 26.5 -133.5t106.5 -41.5h33v-43h-35q-100 0 -139 54.5t-39 161.5v296q0 308 -143 345z " />
<glyph unicode="|" horiz-adv-x="471" d="M184 -358v1917h103v-1917h-103zM199 -344h73v1888h-73v-1888zM213 -330h45v1860h-45v-1860z" />
<glyph unicode="}" horiz-adv-x="555" d="M68 -193h30q80 0 107.5 45.5t27.5 129.5v297q0 274 132 366q-51 20 -93 113q-39 88 -39 231v15v294q0 45 -1 66.5t-7 50.5t-18 42t-36 22.5t-58 9.5h-45v41h47q98 0 131 -56.5t33 -173.5v-296q0 -309 145 -347v-36q-143 -37 -143 -345v-294q0 -217 -179 -218h-34v43z" />
<glyph unicode="~" horiz-adv-x="1077" d="M166 580q78 133 215 133q66 0 173.5 -72t168.5 -72q104 0 188 125l21 -24q-33 -63 -87 -104.5t-122 -41.5q-66 0 -179.5 72t-164.5 72q-109 0 -191 -115q-4 4 -12 14.5t-10 12.5z" />
<glyph unicode="&#xa1;" horiz-adv-x="569" d="M215 1003.5q0 26.5 18.5 45t45 18.5t45 -18.5t18.5 -45t-18.5 -45t-45 -18.5t-45 18.5t-18.5 45zM250 -420v1172h55v-1172h-55z" />
<glyph unicode="&#xa2;" horiz-adv-x="942" d="M137 303v457q0 135 101.5 219t242.5 90v186h43v-186q197 -12 293 -137l-33 -25q-41 53 -111 87q-67 32 -140 32h-9v-989q86 4 168 46t111 105l39 -18q-39 -78 -123 -123t-195 -55v-185h-43v185q-145 16 -244.5 97t-99.5 214zM182 303q-2 -111 83 -178.5t216 -85.5v985 q-123 -4 -212 -74.5t-87 -187.5v-459z" />
<glyph unicode="&#xa3;" horiz-adv-x="913" d="M76 0v43h213v698h-213v41h213v291q0 70 18.5 133.5t59.5 121.5t116.5 94t180.5 36q131 0 229 -78l-31 -34q-86 70 -203 69q-160 0 -241.5 -101.5t-81.5 -234.5v-297h338v-41h-338v-698h502v-43h-762z" />
<glyph unicode="&#xa4;" horiz-adv-x="1148" d="M106 725q0 186 123 322l-106 106l27 33l106 -113q158 125 326 125q164 0 319 -121l105 109l30 -25l-110 -114q131 -143 131 -322q0 -180 -127 -319l117 -113q-8 -6 -31 -29l-113 111q-164 -129 -321 -129q-162 0 -324 125l-106 -109l-29 27l110 110q-127 140 -127 326z M147 723q0 -180 127 -306t304 -126q178 0 306 126t128 306q0 182 -128 309t-306 127q-176 0 -303.5 -127t-127.5 -309z" />
<glyph unicode="&#xa5;" horiz-adv-x="1003" d="M-27 1450h60l450 -840l463 840h60l-471 -852h313l-10 -47h-332v-152h342q0 -4 -1 -6t-1 -6v2l-6 -35h-334v-354h-47v354h-338l6 45h332v152h-334q0 4 1 7t3 14.5t4 25.5h299z" />
<glyph unicode="&#xa6;" horiz-adv-x="436" d="M195 -260v709h49v-709h-49zM195 764v682h49v-682h-49z" />
<glyph unicode="&#xa7;" horiz-adv-x="1005" d="M141 -66l47 21q47 -88 130 -129t169 -43h9q117 0 198 53q84 55 84 191q0 45 -20.5 86t-47 69.5t-73.5 58t-82 46.5l-92 43l-82 39q-102 55 -160.5 117.5t-58.5 154.5q0 162 246 270q-98 59 -147.5 119t-49.5 135q0 133 101.5 213t238.5 80q86 0 169 -35.5t120 -111.5 l-41 -23q-70 123 -248 123q-113 0 -202 -68.5t-89 -177.5q0 -35 9.5 -64.5t35.5 -56.5l43 -43q16 -16 65 -40l63 -33q15 -8 75 -35q70 -33 115 -57.5t98 -65.5t79.5 -92t26.5 -113q0 -80 -59 -153.5t-149 -124.5q84 -49 130 -117t46 -129q0 -160 -100.5 -232.5t-250.5 -72.5 q-109 0 -206 52t-140 146zM213 641q0 -55 34 -103.5t62.5 -68.5t77.5 -47l229 -113q78 41 140.5 108.5t62.5 141.5q0 78 -56 141.5t-128 102.5l-168 82q-100 -35 -177 -95.5t-77 -148.5z" />
<glyph unicode="&#xa8;" horiz-adv-x="614" d="M57 1402.5q0 20.5 14.5 35t35 14.5t35 -14.5t14.5 -35t-14.5 -34.5t-35 -14t-35 14t-14.5 34.5zM426 1402.5q0 20.5 14.5 35t35 14.5t34.5 -14.5t14 -35t-14 -34.5t-34.5 -14t-35 14t-14.5 34.5z" />
<glyph unicode="&#xa9;" horiz-adv-x="1628" d="M96 725q0 299 214 513t513 214t513 -214t214 -513t-214 -513t-513 -214t-513 214t-214 513zM143 725q0 -285 198 -482.5t482.5 -197.5t482 197.5t197.5 482.5t-197.5 482.5t-482 197.5t-482.5 -197.5t-198 -482.5zM457 571v310q0 145 108.5 227t257.5 82q215 0 314 -137 l-35 -23q-84 115 -279 115q-133 0 -227 -67.5t-94 -192.5v-314q0 -129 94 -196.5t227 -67.5q96 0 178 39t119 113q12 -4 24 -10l19 -11q-45 -84 -138 -130t-202 -46q-150 0 -258 82t-108 227z" />
<glyph unicode="&#xaa;" horiz-adv-x="677" d="M78 981q2 201 252 201q100 0 190 -37v104q0 76 -57 114t-141 38q-92 0 -172 -64l-31 27q92 80 207 80q96 0 166.5 -50.5t70.5 -142.5v-456q-131 -39 -252 -39h-12q-94 2 -157.5 64.5t-63.5 160.5zM121 981q0 -82 52 -132t130 -52q104 0 217 22v287q-106 37 -194 37 q-203 0 -205 -162z" />
<glyph unicode="&#xab;" horiz-adv-x="784" d="M115 604l250 371q25 -16 30 -23q4 -4 6 -4l-233 -344l229 -344l-32 -22zM369 604l249 371q25 -16 31 -23q4 -4 6 -4l-237 -344l235 -344l-35 -22z" />
<glyph unicode="&#xac;" horiz-adv-x="1132" d="M94 739v43h907v-399h-43v356h-864z" />
<glyph unicode="&#xad;" horiz-adv-x="681" d="M106 528v47h467v-47h-467z" />
<glyph unicode="&#xae;" horiz-adv-x="1607" d="M82 725q0 299 214 513t513 214t513 -214t214 -513t-214 -513t-513 -214t-513 214t-214 513zM131 725q0 -283 197.5 -480.5t480.5 -197.5t480.5 197.5t197.5 480.5t-197.5 480.5t-480.5 197.5t-480.5 -197.5t-197.5 -480.5zM563 324v815h279q127 0 197.5 -64.5 t70.5 -163.5q0 -102 -69.5 -164.5t-176.5 -70.5l252 -352h-45l-256 348h-211v-348h-41zM604 709h176q127 0 207 42t80 160q0 94 -68.5 141.5t-162.5 47.5h-232v-391z" />
<glyph unicode="&#xaf;" horiz-adv-x="563" d="M25 1401v49h485v-49h-485z" />
<glyph unicode="&#xb0;" horiz-adv-x="698" d="M129 1253q0 86 61.5 146.5t147.5 60.5t147.5 -60.5t61.5 -146.5q0 -88 -61.5 -149.5t-147.5 -61.5t-147.5 61.5t-61.5 149.5zM172 1251.5q0 -71.5 48 -121t118 -49.5t118 49.5t48 121t-48 120.5t-118 49t-118 -49t-48 -120.5z" />
<glyph unicode="&#xb1;" horiz-adv-x="1132" d="M152 815v43h385v367h43v-367h399v-43h-399v-373h-43v373h-385zM154 229v41h821v-41h-821z" />
<glyph unicode="&#xb2;" horiz-adv-x="712" d="M72 649l401 410q94 94 94 178q0 24 -8 47q-63 137 -221 137q-139 0 -211 -102l-29 12h2l-6 4q82 125 244 125q86 0 156.5 -40t101.5 -115l-2 2q14 -38 14 -75.5t-14 -73.5q-29 -73 -90 -124l-371 -379h479v-39h-528l-2 5z" />
<glyph unicode="&#xb3;" horiz-adv-x="706" d="M88 754l39 14q61 -104 209 -113q10 -1 19 0q82 0 155 47q82 53 82 148q0 100 -61 146q-55 42 -139 43q-7 0 -15 -1h-68v35h68q96 0 141 43q42 42 42 104q0 65 -40 111q-63 70 -170 70q-137 0 -205 -92q-16 8 -28 20q76 98 211 108q13 1 25 1q118 0 196 -80 q50 -50 50 -133q0 -79 -50 -131q-12 -12 -53 -35q72 -23 104.5 -81t32.5 -128q0 -113 -92 -176q-84 -58 -189 -58h-20q-76 4 -143.5 40.5t-100.5 97.5z" />
<glyph unicode="&#xb4;" horiz-adv-x="450" d="M152 1206l112 244h80l-147 -244h-45z" />
<glyph unicode="&#xb5;" horiz-adv-x="1028" d="M156 -432v1493h47v-672q0 -86 21.5 -159.5t87 -132t169.5 -58.5q158 0 258.5 113.5t100.5 320.5v588h49l6 -1061h-45v281q-39 -145 -141.5 -213t-227.5 -68q-227 0 -282 197l2 -629h-45z" />
<glyph unicode="&#xb6;" horiz-adv-x="1128" d="M74 1018q0 174 122.5 304t342.5 130h434v-1683h-43v1646h-336v-1646h-45v837q-221 0 -348 123t-127 289z" />
<glyph unicode="&#xb7;" horiz-adv-x="532" d="M186 651q0 33 23.5 56.5t56.5 23.5t56.5 -23.5t23.5 -56.5t-23.5 -56.5t-56.5 -23.5t-56.5 23.5t-23.5 56.5z" />
<glyph unicode="&#xb8;" horiz-adv-x="499" d="M100 -313l4 24q45 -18 113 -18q82 0 121 47q21 26 21 52q0 21 -14 43q-32 48 -122 48l-76 -8l89 129h36l-61 -94q20 2 37 2q95 0 134 -55q22 -31 22 -62q0 -36 -28 -73q-49 -65 -147 -64h-12q-70 4 -117 29z" />
<glyph unicode="&#xb9;" horiz-adv-x="577" d="M145 1249l177 201h55v-836h-43v793l-158 -184z" />
<glyph unicode="&#xba;" horiz-adv-x="745" d="M88 973v262q0 104 83 162.5t195.5 58.5t195.5 -58.5t83 -162.5v-262q0 -104 -83 -162.5t-195.5 -58.5t-195.5 58.5t-83 162.5zM129 979q0 -96 70.5 -142t167 -46t167 46t70.5 142v250q0 96 -70.5 142t-167 46t-167 -46t-70.5 -142v-250z" />
<glyph unicode="&#xbb;" horiz-adv-x="788" d="M145 260l238 344l-236 344l35 23l250 -367l-250 -371q-25 16 -30 23q-5 4 -7 4zM395 260l238 344l-236 344l35 23l250 -367l-250 -371z" />
<glyph unicode="&#xbc;" horiz-adv-x="1368" d="M119 1249l176 201h55v-836h-43v793l-157 -184zM166 -4l899 1474l14 -8l19 -12l-901 -1473zM666 254l469 592h51v-594h82v-35h-82v-217h-39v217h-457zM709 250l438 2v547z" />
<glyph unicode="&#xbd;" horiz-adv-x="1548" d="M137 1249l176 201h56v-836h-43v793l-158 -184zM211 -4l899 1474l14 -8l19 -12l-901 -1473zM831 33l402 409q94 94 94 178q0 24 -8 48q-63 137 -221 137q-135 0 -207 -103l-33 13h2l-6 4q82 125 244 125q86 0 156.5 -40t101.5 -116l-2 2q14 -38 14 -75t-14 -73 q-29 -73 -90 -124l-371 -379h479v-39h-528l-2 4z" />
<glyph unicode="&#xbe;" horiz-adv-x="1492" d="M92 772l39 14q61 -104 209 -112q10 -1 19 -1q82 0 155 48q82 53 82 147q0 100 -60 147q-55 42 -140 42h-15h-68v35h68q96 0 141 43q42 42 42 103q0 65 -40 112q-63 70 -170 69q-137 0 -204 -92q-16 8 -29 21q76 98 211 107q13 1 25 1q118 0 196 -80q50 -50 50 -133 q0 -79 -50 -131q-12 -12 -53 -35q72 -23 104.5 -81t32.5 -128q0 -113 -92 -176q-84 -58 -189 -58q-10 0 -20 1q-76 4 -143.5 40t-100.5 97zM326 -2l897 1472l12 -8l18 -12l-899 -1470zM745 254l469 592h52v-594h82v-35h-82v-217h-39v217h-457zM788 250l439 2v547z" />
<glyph unicode="&#xbf;" horiz-adv-x="948" d="M211 295q117 106 303 125q4 111 6 191.5t3 130t1 71.5h37l12 -430q-180 -12 -307 -115q-125 -101 -125 -261v-5q2 -160 115 -246t268 -86q162 0 305 121l31 -31q-145 -141 -340 -141q-174 0 -302 102q-126 101 -126 277q0 189 119 297zM483 993.5q0 26.5 17.5 44 t42.5 17.5q27 0 45 -17.5t18 -44t-18.5 -45t-44.5 -18.5q-25 0 -42.5 18.5t-17.5 45z" />
<glyph unicode="&#xc0;" horiz-adv-x="1267" d="M53 0l529 1464h96l530 -1464h-55l-190 518h-670l-184 -518h-56zM311 569h635l-309 871h-12zM469 1763h80l123 -211h-51z" />
<glyph unicode="&#xc1;" horiz-adv-x="1267" d="M53 0l529 1464h96l530 -1464h-55l-190 518h-670l-184 -518h-56zM311 569h635l-309 871h-12zM588 1546l112 244h80l-147 -244h-45z" />
<glyph unicode="&#xc2;" horiz-adv-x="1267" d="M53 0l529 1464h96l530 -1464h-55l-190 518h-670l-184 -518h-56zM311 569h635l-309 871h-12zM408 1518l180 208h76l180 -208h-47l-172 182l-168 -182h-49z" />
<glyph unicode="&#xc3;" horiz-adv-x="1267" d="M53 0l529 1464h96l530 -1464h-55l-190 518h-670l-184 -518h-56zM311 569h635l-309 871h-12zM432 1593q27 82 113 82q31 0 87 -27.5t87 -27.5q49 0 78 43l28 -10q-16 -33 -46.5 -57.5t-57.5 -24.5q-33 0 -94.5 30.5t-91.5 30.5q-45 0 -76 -51z" />
<glyph unicode="&#xc4;" horiz-adv-x="1267" d="M53 0l529 1464h96l530 -1464h-55l-190 518h-670l-184 -518h-56zM311 569h635l-309 871h-12zM395 1595.5q0 20.5 14.5 35t35 14.5t35 -14.5t14.5 -35t-14.5 -35t-35 -14.5t-35 14.5t-14.5 35zM764 1595.5q0 20.5 14.5 35t35 14.5t34.5 -14.5t14 -35t-14 -35t-34.5 -14.5 t-35 14.5t-14.5 35z" />
<glyph unicode="&#xc5;" horiz-adv-x="1267" d="M53 0l529 1464h96l530 -1464h-55l-190 518h-670l-184 -518h-56zM311 569h635l-309 871h-12zM469 1665q0 76 46 118t113.5 42t110.5 -48t43 -114q0 -61 -46 -109.5t-107 -48.5q-68 0 -114 44t-46 116zM516 1663q0 -47 33 -81t78 -34q47 0 79.5 35t32.5 82t-32.5 82 t-79.5 35q-49 0 -80 -32t-31 -87z" />
<glyph unicode="&#xc6;" horiz-adv-x="1531" d="M2 0l719 1450h743v-49h-622v-672h559v-49h-559v-635h622v-45h-669v518h-473l-263 -518h-57zM344 565h451v842l-41 -2z" />
<glyph unicode="&#xc7;" horiz-adv-x="1179" d="M129 397v660q0 188 153.5 296.5t360.5 108.5q143 0 266 -54t185 -155l-45 -32q-55 90 -169 141t-243 51q-184 0 -320.5 -94t-136.5 -262v-660q0 -168 136.5 -261t320.5 -93q129 0 241.5 47t170.5 135q14 -8 45 -22q-61 -100 -187.5 -155.5t-269.5 -55.5h-21l-30 -51 q20 2 38 2q110 0 142 -76q9 -23 9 -43q0 -45 -42 -86q-50 -51 -133 -52q-6 0 -12 1q-70 4 -117 28l6 29q45 -18 111 -18q82 0 121 45q21 25 21 50q0 20 -14 41q-32 46 -122 46l-76 -4l62 90q-186 14 -318.5 120.5t-132.5 282.5z" />
<glyph unicode="&#xc8;" horiz-adv-x="1171" d="M197 0v1450h862v-51h-811v-649h749v-56h-749v-643h811v-51h-862zM469 1743h80l123 -211h-51z" />
<glyph unicode="&#xc9;" horiz-adv-x="1171" d="M197 0v1450h862v-51h-811v-649h749v-56h-749v-643h811v-51h-862zM588 1540l112 244h80l-147 -244h-45z" />
<glyph unicode="&#xca;" horiz-adv-x="1171" d="M197 0v1450h862v-51h-811v-649h749v-56h-749v-643h811v-51h-862zM426 1534l180 209h76l180 -209h-49l-170 180l-166 -180h-51z" />
<glyph unicode="&#xcb;" horiz-adv-x="1171" d="M197 0v1450h862v-51h-811v-649h749v-56h-749v-643h811v-51h-862zM403 1597.5q0 20.5 14.5 35t35 14.5t35 -14.5t14.5 -35t-14.5 -35t-35 -14.5t-35 14.5t-14.5 35zM772 1597.5q0 20.5 14.5 35t35 14.5t34.5 -14.5t14 -35t-14 -35t-34.5 -14.5t-35 14.5t-14.5 35z" />
<glyph unicode="&#xcc;" horiz-adv-x="475" d="M63 1757h80l123 -211h-51zM199 0v1450h51v-1450h-51z" />
<glyph unicode="&#xcd;" horiz-adv-x="475" d="M180 1544l113 244h80l-148 -244h-45zM199 0v1450h51v-1450h-51z" />
<glyph unicode="&#xce;" horiz-adv-x="475" d="M6 1530l180 209h76l180 -209h-51l-168 178l-164 -178h-53zM199 0v1450h51v-1450h-51z" />
<glyph unicode="&#xcf;" horiz-adv-x="475" d="M-8 1648.5q0 20.5 14 35t34.5 14.5t35 -14.5t14.5 -35t-14.5 -35t-35 -14.5t-34.5 14.5t-14 35zM199 0v1450h51v-1450h-51zM360 1648.5q0 20.5 14.5 35t35 14.5t35 -14.5t14.5 -35t-14.5 -35t-35 -14.5t-35 14.5t-14.5 35z" />
<glyph unicode="&#xd0;" horiz-adv-x="1255" d="M53 696v45h129v709h449q207 0 357.5 -107.5t150.5 -302.5v-632q0 -193 -150.5 -300.5t-357.5 -107.5h-449v696h-129zM233 51h398q186 0 321 93.5t135 263.5v632q0 170 -135 264.5t-321 94.5h-398v-658h256v-45h-256v-645z" />
<glyph unicode="&#xd1;" horiz-adv-x="1411" d="M195 0v1450h79l863 -1401v1401h51v-1450h-88l-850 1384l-2 -1384h-53zM471 1559q14 43 50 66.5t77 23.5q35 0 99.5 -32t99.5 -32q55 0 88 49l33 -10q-16 -37 -52.5 -64.5t-66.5 -27.5q-37 0 -106.5 33.5t-104.5 33.5q-51 0 -86 -55z" />
<glyph unicode="&#xd2;" horiz-adv-x="1396" d="M158 401v650q0 193 159.5 301t378.5 108t380 -108.5t161 -300.5v-650q0 -193 -161 -302t-380 -109t-378.5 109t-159.5 302zM209 401q0 -172 144.5 -266t343 -94t343 94t146.5 266v650q0 178 -144.5 269t-347.5 91q-201 -2 -343 -93t-142 -267v-650zM555 1749h80l123 -211 h-51z" />
<glyph unicode="&#xd3;" horiz-adv-x="1396" d="M158 401v650q0 193 159.5 301t378.5 108t380 -108.5t161 -300.5v-650q0 -193 -161 -302t-380 -109t-378.5 109t-159.5 302zM209 401q0 -172 144.5 -266t343 -94t343 94t146.5 266v650q0 178 -144.5 269t-347.5 91q-201 -2 -343 -93t-142 -267v-650zM659 1546l113 244h80 l-147 -244h-46z" />
<glyph unicode="&#xd4;" horiz-adv-x="1396" d="M158 401v650q0 193 159.5 301t378.5 108t380 -108.5t161 -300.5v-650q0 -193 -161 -302t-380 -109t-378.5 109t-159.5 302zM209 401q0 -172 144.5 -266t343 -94t343 94t146.5 266v650q0 178 -144.5 269t-347.5 91q-201 -2 -343 -93t-142 -267v-650zM477 1534l185 180h75 l183 -180h-48l-174 158l-170 -158h-51z" />
<glyph unicode="&#xd5;" horiz-adv-x="1396" d="M158 401v650q0 193 159.5 301t378.5 108t380 -108.5t161 -300.5v-650q0 -193 -161 -302t-380 -109t-378.5 109t-159.5 302zM209 401q0 -172 144.5 -266t343 -94t343 94t146.5 266v650q0 178 -144.5 269t-347.5 91q-201 -2 -343 -93t-142 -267v-650zM494 1577 q29 78 116 78q33 0 92.5 -28t92.5 -28q51 0 79 43l31 -10q-16 -31 -48 -54.5t-60 -23.5q-35 0 -98.5 29t-96.5 29q-49 0 -80 -47z" />
<glyph unicode="&#xd6;" horiz-adv-x="1396" d="M158 401v650q0 193 159.5 301t378.5 108t380 -108.5t161 -300.5v-650q0 -193 -161 -302t-380 -109t-378.5 109t-159.5 302zM209 401q0 -172 144.5 -266t343 -94t343 94t146.5 266v650q0 178 -144.5 269t-347.5 91q-201 -2 -343 -93t-142 -267v-650zM465 1589.5 q0 20.5 14.5 34.5t35 14t34.5 -14t14 -34.5t-14 -35t-34.5 -14.5t-35 14.5t-14.5 35zM834 1589.5q0 20.5 14 34.5t34.5 14t35 -14t14.5 -34.5t-14.5 -35t-35 -14.5t-34.5 14.5t-14 35z" />
<glyph unicode="&#xd7;" horiz-adv-x="1120" d="M186 1026l35 33l334 -334l326 326l34 -33l-327 -326l321 -321l-32 -35l-322 321l-330 -329l-32 34l327 328z" />
<glyph unicode="&#xd8;" horiz-adv-x="1396" d="M158 408v636q0 193 159.5 301.5t378.5 108.5q137 0 252 -43l30 75q19 50 30 70q27 -8 39 -14l-60 -145q250 -129 250 -353v-636q0 -193 -161 -302.5t-380 -109.5q-96 0 -245 43q-8 -25 -32 -79t-30 -73l-29 9q-6 0 -10 2l60 155q-252 128 -252 355zM207 408 q0 -186 223 -312l500 1274q-90 35 -236 35q-201 -2 -344 -93t-143 -268v-636zM469 84q141 -39 227 -39q197 0 344.5 96.5t149.5 266.5v636q0 184 -221 310z" />
<glyph unicode="&#xd9;" horiz-adv-x="1400" d="M190 1450h52v-1042q0 -174 135 -271.5t321 -97.5q184 0 321.5 97t137.5 272v1042h51v-1042q0 -197 -151.5 -307.5t-358.5 -110.5q-205 0 -356.5 110.5t-151.5 307.5v1042zM561 1751h80l123 -211h-51z" />
<glyph unicode="&#xda;" horiz-adv-x="1400" d="M190 1450h52v-1042q0 -174 135 -271.5t321 -97.5q184 0 321.5 97t137.5 272v1042h51v-1042q0 -197 -151.5 -307.5t-358.5 -110.5q-205 0 -356.5 110.5t-151.5 307.5v1042zM633 1542l112 244h80l-147 -244h-45z" />
<glyph unicode="&#xdb;" horiz-adv-x="1400" d="M190 1450h52v-1042q0 -174 135 -271.5t321 -97.5q184 0 321.5 97t137.5 272v1042h51v-1042q0 -197 -151.5 -307.5t-358.5 -110.5q-205 0 -356.5 110.5t-151.5 307.5v1042zM481 1542l181 209h75l181 -209h-48l-172 182l-168 -182h-49z" />
<glyph unicode="&#xdc;" horiz-adv-x="1400" d="M190 1450h52v-1042q0 -174 135 -271.5t321 -97.5q184 0 321.5 97t137.5 272v1042h51v-1042q0 -197 -151.5 -307.5t-358.5 -110.5q-205 0 -356.5 110.5t-151.5 307.5v1042zM463 1587.5q0 20.5 14.5 34.5t34.5 14t34.5 -14t14.5 -34.5t-14.5 -35t-34.5 -14.5t-34.5 14.5 t-14.5 35zM831 1587.5q0 20.5 14.5 34.5t35 14t35 -14t14.5 -34.5t-14.5 -35t-35 -14.5t-35 14.5t-14.5 35z" />
<glyph unicode="&#xdd;" horiz-adv-x="1167" d="M55 1450h62l461 -817l475 817h63l-514 -875v-575h-51v575zM537 1522l112 243h80l-147 -243h-45z" />
<glyph unicode="&#xde;" horiz-adv-x="1073" d="M172 0v1450h51v-309q150 20 228 20q258 0 397 -107.5t139 -305.5q0 -113 -48 -195t-130 -127t-177 -65.5t-206 -20.5h-84q8 49 8 51h70q98 0 181 15.5t163 52.5t126 110.5t46 178.5q0 106 -45 181t-123 111.5t-157 52t-169 15.5q-121 0 -219 -18v-1090h-51z" />
<glyph unicode="&#xdf;" horiz-adv-x="1157" d="M160 0v1120q0 164 126 261.5t296 97.5q172 0 298 -92.5t126 -253.5q0 -250 -211 -328q279 -84 278 -381q-4 -195 -155 -311q-146 -113 -335 -113h-14q-100 4 -211 49q0 6 1 21.5t1 31.5q123 -47 207 -49h14q172 0 303 100q136 103 136 273q0 176 -111 264 q-108 86 -280 86h-8h-238v45h238q143 0 238 81t95 231q0 152 -109.5 225.5t-262.5 73.5q-150 0 -261.5 -80t-111.5 -232v-1120h-49z" />
<glyph unicode="&#xe0;" d="M127 315q2 158 111.5 244t267.5 86q164 0 311 -65v194q0 129 -91 191.5t-228 62.5q-162 0 -271 -96l-26 29q104 106 299 110h15q140 0 240 -74q105 -78 105 -223v-737q-172 -56 -370 -56q-14 0 -27 1q-143 2 -239.5 94t-96.5 239zM172 315q0 -139 83 -215.5t214 -79.5h16 q148 0 301 37l31 11v471q-160 66 -315 65q-139 0 -233.5 -73t-96.5 -216zM365 1350h79l119 -211h-47z" />
<glyph unicode="&#xe1;" d="M127 315q2 158 111.5 244t267.5 86q164 0 311 -65v194q0 129 -91 191.5t-228 62.5q-162 0 -271 -96l-26 29q104 106 299 110h15q140 0 240 -74q105 -78 105 -223v-737q-172 -56 -370 -56q-14 0 -27 1q-143 2 -239.5 94t-96.5 239zM172 315q0 -139 83 -215.5t214 -79.5h16 q148 0 301 37l31 11v471q-160 66 -315 65q-139 0 -233.5 -73t-96.5 -216zM483 1133l109 237h78l-144 -237h-43z" />
<glyph unicode="&#xe2;" d="M127 315q2 158 111.5 244t267.5 86q164 0 311 -65v194q0 129 -91 191.5t-228 62.5q-162 0 -271 -96l-26 29q104 106 299 110h15q140 0 240 -74q105 -78 105 -223v-737q-172 -56 -370 -56q-14 0 -27 1q-143 2 -239.5 94t-96.5 239zM172 315q0 -139 83 -215.5t214 -79.5h16 q148 0 301 37l31 11v471q-160 66 -315 65q-139 0 -233.5 -73t-96.5 -216zM303 1157l180 209h76l180 -209h-47l-172 182l-168 -182h-49z" />
<glyph unicode="&#xe3;" d="M127 315q2 158 111.5 244t267.5 86q164 0 311 -65v194q0 129 -91 191.5t-228 62.5q-162 0 -271 -96l-26 29q104 106 299 110h15q140 0 240 -74q105 -78 105 -223v-737q-172 -56 -370 -56q-14 0 -27 1q-143 2 -239.5 94t-96.5 239zM172 315q0 -139 83 -215.5t214 -79.5h16 q148 0 301 37l31 11v471q-160 66 -315 65q-139 0 -233.5 -73t-96.5 -216zM334 1190q27 74 106 74q29 0 82 -25t84 -25q47 0 72 39l27 -10q-12 -29 -42 -51.5t-57 -22.5q-29 0 -86 28t-88 28q-45 0 -72 -45z" />
<glyph unicode="&#xe4;" d="M127 315q2 158 111.5 244t267.5 86q164 0 311 -65v194q0 129 -91 191.5t-228 62.5q-162 0 -271 -96l-26 29q104 106 299 110h15q140 0 240 -74q105 -78 105 -223v-737q-172 -56 -370 -56q-14 0 -27 1q-143 2 -239.5 94t-96.5 239zM172 315q0 -139 83 -215.5t214 -79.5h16 q148 0 301 37l31 11v471q-160 66 -315 65q-139 0 -233.5 -73t-96.5 -216zM297 1230.5q0 20.5 14.5 35t35 14.5t34.5 -14.5t14 -35t-14 -34.5t-34.5 -14t-35 14t-14.5 34.5zM666 1230.5q0 20.5 14 35t34.5 14.5t35 -14.5t14.5 -35t-14.5 -34.5t-35 -14t-34.5 14t-14 34.5z " />
<glyph unicode="&#xe5;" d="M127 315q2 158 111.5 244t267.5 86q164 0 311 -65v194q0 129 -91 191.5t-228 62.5q-162 0 -271 -96l-26 29q104 106 299 110h15q140 0 240 -74q105 -78 105 -223v-737q-172 -56 -370 -56q-14 0 -27 1q-143 2 -239.5 94t-96.5 239zM172 315q0 -139 83 -215.5t214 -79.5h16 q148 0 301 37l31 11v471q-160 66 -315 65q-139 0 -233.5 -73t-96.5 -216zM377 1298q0 72 43 112t108 40q63 0 104.5 -46t41.5 -108q0 -57 -43 -103t-103 -46q-63 0 -107 41.5t-44 109.5zM422 1296q0 -45 29.5 -76.5t74.5 -31.5q43 0 75 33.5t32 76.5q0 45 -32 79t-75 34 q-47 0 -75.5 -31t-28.5 -84z" />
<glyph unicode="&#xe6;" horiz-adv-x="1683" d="M125 328q2 166 110.5 244.5t270.5 78.5q164 0 311 -65v184q-2 123 -97 186.5t-226 63.5q-150 0 -265 -100l-30 32q113 113 299 113q109 0 204 -48t140 -140q45 92 139 136t203 44q150 0 258 -81t108 -231v-251h-686v-183q-2 -129 91.5 -195.5t228.5 -66.5q203 0 284 129 q10 -4 22.5 -11t20.5 -11q-43 -76 -132 -115t-195 -39q-215 0 -324 152q-78 -78 -185 -121q-103 -41 -203 -41h-9q-145 2 -241.5 92t-96.5 244zM174 328q0 -139 82 -215t213 -78h8q83 0 186 42q108 44 175 113q-20 55 -21 121v228q-166 68 -315 67q-143 0 -234.5 -66.5 t-93.5 -211.5zM864 537h641v213q0 125 -95 193.5t-226 68.5q-135 0 -228.5 -67.5t-91.5 -194.5v-213z" />
<glyph unicode="&#xe7;" horiz-adv-x="888" d="M117 295v465q0 145 108.5 227t257.5 82q215 0 314 -137l-35 -23q-84 115 -279 115q-133 0 -227 -67.5t-94 -192.5v-469q0 -129 94 -196.5t227 -67.5q96 0 178 39t119 112q12 -4 24 -10l19 -10q-45 -82 -135 -128t-196 -48l-39 -60q20 2 37 2q95 0 134 -55q22 -31 21 -62 q0 -36 -28 -72q-49 -65 -146 -65h-12q-70 4 -117 29l4 25q45 -18 113 -19q82 0 121 47q21 26 21 52q0 21 -14 44q-32 48 -122 48l-76 -9l66 97q-141 8 -239.5 88t-98.5 219z" />
<glyph unicode="&#xe8;" horiz-adv-x="1005" d="M137 301v461q0 147 109.5 228t259 81t258 -82t108.5 -227v-273h-688v-188q-2 -129 92.5 -195.5t229.5 -66.5q205 0 287 129q10 -4 21 -11t20 -12q-43 -76 -132.5 -114.5t-195.5 -38.5q-150 0 -259.5 82t-109.5 227zM184 532h643v230v4q0 125 -95 193.5t-226 68.5 q-135 0 -229.5 -67.5t-92.5 -194.5v-234zM352 1364h80l123 -211h-51z" />
<glyph unicode="&#xe9;" horiz-adv-x="1005" d="M137 301v461q0 147 109.5 228t259 81t258 -82t108.5 -227v-273h-688v-188q-2 -129 92.5 -195.5t229.5 -66.5q205 0 287 129q10 -4 21 -11t20 -12q-43 -76 -132.5 -114.5t-195.5 -38.5q-150 0 -259.5 82t-109.5 227zM184 532h643v230v4q0 125 -95 193.5t-226 68.5 q-135 0 -229.5 -67.5t-92.5 -194.5v-234zM465 1141l113 243h79l-147 -243h-45z" />
<glyph unicode="&#xea;" horiz-adv-x="1005" d="M137 301v461q0 147 109.5 228t259 81t258 -82t108.5 -227v-273h-688v-188q-2 -129 92.5 -195.5t229.5 -66.5q205 0 287 129q10 -4 21 -11t20 -12q-43 -76 -132.5 -114.5t-195.5 -38.5q-150 0 -259.5 82t-109.5 227zM184 532h643v230v4q0 125 -95 193.5t-226 68.5 q-135 0 -229.5 -67.5t-92.5 -194.5v-234zM293 1126l180 209h76l180 -209h-47l-172 183l-168 -183h-49z" />
<glyph unicode="&#xeb;" horiz-adv-x="1005" d="M137 301v461q0 147 109.5 228t259 81t258 -82t108.5 -227v-273h-688v-188q-2 -129 92.5 -195.5t229.5 -66.5q205 0 287 129q10 -4 21 -11t20 -12q-43 -76 -132.5 -114.5t-195.5 -38.5q-150 0 -259.5 82t-109.5 227zM184 532h643v230v4q0 125 -95 193.5t-226 68.5 q-135 0 -229.5 -67.5t-92.5 -194.5v-234zM283 1204.5q0 20.5 14 34.5t34.5 14t35 -14t14.5 -34.5t-14.5 -35t-35 -14.5t-34.5 14.5t-14 35zM651 1204.5q0 20.5 14.5 34.5t35 14t35 -14t14.5 -34.5t-14.5 -35t-35 -14.5t-35 14.5t-14.5 35z" />
<glyph unicode="&#xec;" horiz-adv-x="452" d="M59 1434h80l123 -211h-51zM197 0v1061h51v-1061h-51z" />
<glyph unicode="&#xed;" horiz-adv-x="452" d="M197 0v1061h53v-1061h-53zM199 1194l112 244h80l-147 -244h-45z" />
<glyph unicode="&#xee;" horiz-adv-x="491" d="M66 1219l157 196h68l155 -196h-40l-154 167l-141 -167h-45zM215 0v1061h51v-1061h-51z" />
<glyph unicode="&#xef;" horiz-adv-x="489" d="M66 1321q0 20 14 35.5t37 15.5q18 0 33.5 -15.5t15.5 -36t-15.5 -35.5t-33.5 -15q-23 0 -37 14t-14 37zM219 0v1059h47v-1059h-47zM332 1321q0 20 14 35.5t34.5 15.5t36 -15.5t15.5 -35.5q0 -23 -15.5 -37t-36 -14t-34.5 14t-14 37z" />
<glyph unicode="&#xf0;" horiz-adv-x="1064" d="M162 285v354q0 143 109 229q107 84 249 84h6q158 0 320 -78v265q0 180 -228 254q-6 -23 -15 -52l-19 -62q-10 -34 -17 -52l-32 10l51 162q-43 6 -82 6q-154 0 -244 -96l-33 30q66 68 167 95q60 16 121 15q42 0 85 -7q6 20 43 125l35 -11l-45 -120q115 -35 185.5 -112 t70.5 -185v-1104q-207 -63 -371 -64q-143 2 -249.5 86.5t-106.5 227.5zM209 285q0 -127 91 -196t220 -69q195 0 326 58v747q-174 76 -324 76q-129 -2 -221 -68.5t-92 -191.5v-356z" />
<glyph unicode="&#xf1;" horiz-adv-x="1089" d="M178 0v1014q178 63 373 63q150 -4 254 -81.5t104 -227.5v-768h-45v768q0 127 -94 194.5t-219 67.5q-197 0 -328 -55v-975h-45zM340 1202q29 80 117 80q33 0 92 -27.5t92 -27.5q51 0 80 43l31 -10q-16 -31 -48 -55.5t-61 -24.5q-35 0 -98.5 29.5t-95.5 29.5q-49 0 -80 -49 z" />
<glyph unicode="&#xf2;" horiz-adv-x="1030" d="M147 297v469q0 145 110 227t259 84q150 -2 258.5 -84t108.5 -227v-469q0 -145 -108.5 -227t-258.5 -84q-150 2 -259.5 84t-109.5 227zM193 297q0 -131 96 -198.5t227 -67.5q129 0 225.5 67.5t96.5 198.5v469q0 129 -96.5 196.5t-225.5 67.5q-131 0 -227 -67.5t-96 -196.5 v-469zM373 1376h80l122 -211h-51z" />
<glyph unicode="&#xf3;" horiz-adv-x="1030" d="M147 297v469q0 145 110 227t259 84q150 -2 258.5 -84t108.5 -227v-469q0 -145 -108.5 -227t-258.5 -84q-150 2 -259.5 84t-109.5 227zM193 297q0 -131 96 -198.5t227 -67.5q129 0 225.5 67.5t96.5 198.5v469q0 129 -96.5 196.5t-225.5 67.5q-131 0 -227 -67.5t-96 -196.5 v-469zM483 1153l113 244h80l-148 -244h-45z" />
<glyph unicode="&#xf4;" horiz-adv-x="1030" d="M147 297v469q0 145 110 227t259 84q150 -2 258.5 -84t108.5 -227v-469q0 -145 -108.5 -227t-258.5 -84q-150 2 -259.5 84t-109.5 227zM193 297q0 -131 96 -198.5t227 -67.5q129 0 225.5 67.5t96.5 198.5v469q0 129 -96.5 196.5t-225.5 67.5q-131 0 -227 -67.5t-96 -196.5 v-469zM301 1149l178 190h76l180 -190h-47l-172 166l-166 -166h-49z" />
<glyph unicode="&#xf5;" horiz-adv-x="1030" d="M147 297v469q0 145 110 227t259 84q150 -2 258.5 -84t108.5 -227v-469q0 -145 -108.5 -227t-258.5 -84q-150 2 -259.5 84t-109.5 227zM193 297q0 -131 96 -198.5t227 -67.5q129 0 225.5 67.5t96.5 198.5v469q0 129 -96.5 196.5t-225.5 67.5q-131 0 -227 -67.5t-96 -196.5 v-469zM311 1225q12 39 44 60.5t69 21.5q31 0 87 -28t87 -28q49 0 78 43l26 -10q-14 -31 -44.5 -54.5t-57.5 -23.5q-31 0 -92.5 29t-91.5 29q-45 0 -76 -52z" />
<glyph unicode="&#xf6;" horiz-adv-x="1030" d="M147 297v469q0 145 110 227t259 84q150 -2 258.5 -84t108.5 -227v-469q0 -145 -108.5 -227t-258.5 -84q-150 2 -259.5 84t-109.5 227zM193 297q0 -131 96 -198.5t227 -67.5q129 0 225.5 67.5t96.5 198.5v469q0 129 -96.5 196.5t-225.5 67.5q-131 0 -227 -67.5t-96 -196.5 v-469zM285 1237q0 20 14 34.5t34.5 14.5t35 -14.5t14.5 -34.5t-14.5 -34.5t-35 -14.5t-34.5 14.5t-14 34.5zM653 1237q0 20 14.5 34.5t35 14.5t35 -14.5t14.5 -34.5t-14.5 -34.5t-35 -14.5t-35 14.5t-14.5 34.5z" />
<glyph unicode="&#xf7;" horiz-adv-x="1081" d="M113 655v50h858v-50h-858zM487 356q0 57 62 62q27 0 44 -17.5t17 -44t-17.5 -44t-44 -17.5t-44 17t-17.5 44zM487 981q0 57 62 61q27 0 44 -17t17 -44t-17.5 -44t-44 -17t-44 17t-17.5 44z" />
<glyph unicode="&#xf8;" horiz-adv-x="1019" d="M147 764q0 145 110 227t259 84q80 -4 172 -35q4 10 25.5 67.5t34.5 86.5q8 -4 14 -5t14 -2t15 -3l-64 -156q156 -98 156 -264v-467q0 -145 -108.5 -227t-258.5 -84q-94 4 -178 32l-30 -67q-22 -49 -29 -70l-37 13l61 141q-156 102 -156 262v467zM193 297q0 -121 124 -223 l353 927q-96 27 -154 27q-131 0 -227 -67.5t-96 -196.5v-467zM356 59q96 -29 160 -28q129 0 225.5 67.5t96.5 198.5v467q0 121 -129 223z" />
<glyph unicode="&#xf9;" horiz-adv-x="1058" d="M166 295v768h45v-768q0 -123 96 -193.5t217 -70.5q190 0 328 59v973h45v-1012q-184 -66 -373 -65q-147 4 -252.5 85t-105.5 224zM383 1366h80l119 -211h-47z" />
<glyph unicode="&#xfa;" horiz-adv-x="1058" d="M166 295v768h45v-768q0 -123 96 -193.5t217 -70.5q190 0 328 59v973h45v-1012q-184 -66 -373 -65q-147 4 -252.5 85t-105.5 224zM477 1147l113 244h80l-148 -244h-45z" />
<glyph unicode="&#xfb;" horiz-adv-x="1058" d="M166 295v768h45v-768q0 -123 96 -193.5t217 -70.5q190 0 328 59v973h45v-1012q-184 -66 -373 -65q-147 4 -252.5 85t-105.5 224zM311 1153l181 209h75l181 -209h-48l-172 182l-168 -182h-49z" />
<glyph unicode="&#xfc;" horiz-adv-x="1058" d="M166 295v768h45v-768q0 -123 96 -193.5t217 -70.5q190 0 328 59v973h45v-1012q-184 -66 -373 -65q-147 4 -252.5 85t-105.5 224zM299 1261.5q0 20.5 14.5 35t35 14.5t34.5 -14.5t14 -35t-14 -35t-34.5 -14.5t-35 14.5t-14.5 35zM668 1261.5q0 20.5 14 35t34.5 14.5 t35 -14.5t14.5 -35t-14.5 -35t-35 -14.5t-34.5 14.5t-14 35z" />
<glyph unicode="&#xfd;" horiz-adv-x="1062" d="M162 297v764h47v-764q-2 -123 92 -191.5t225 -72.5q115 2 301 78l21 14v936h45v-1108q0 -145 -106.5 -222t-254.5 -77q-188 0 -301 98l33 35q121 -88 271 -88q123 0 218 65.5t95 186.5v121q-166 -82 -318 -82h-7q-143 0 -251 81q-110 83 -110 226zM471 1147l113 244h80 l-148 -244h-45z" />
<glyph unicode="&#xfe;" horiz-adv-x="1056" d="M174 -367v1815h47v-414q180 45 330 45q145 -2 253.5 -86t108.5 -229v-469q0 -145 -110 -232q-108 -84 -251 -84q-3 0 -7 1q-182 4 -324 69v-416h-47zM221 98q164 -72 328 -71q131 2 225 70.5t92 193.5v473q2 127 -90 196.5t-225 69.5q-195 0 -330 -47v-885z" />
<glyph unicode="&#xff;" horiz-adv-x="1062" d="M162 297v764h47v-764q-2 -123 92 -191.5t225 -72.5q115 2 301 78l21 14v936h45v-1108q0 -145 -106.5 -222t-254.5 -77q-188 0 -301 98l33 35q121 -88 271 -88q123 0 218 65.5t95 186.5v121q-166 -82 -318 -82h-7q-143 0 -251 81q-110 83 -110 226zM297 1273.5 q0 20.5 14.5 35t35 14.5t34.5 -14.5t14 -35t-14 -34.5t-34.5 -14t-35 14t-14.5 34.5zM666 1273.5q0 20.5 14 35t34.5 14.5t35 -14.5t14.5 -35t-14.5 -34.5t-35 -14t-34.5 14t-14 34.5z" />
<glyph unicode="&#x152;" horiz-adv-x="1886" d="M139 420v618q0 193 159 302.5t376 111.5q162 0 319 -104v102h797v-47h-748v-655h684v-50h-684v-649h748v-49h-797v90q-197 -102 -324 -102h-5q-211 4 -368 123t-157 309zM190 420q0 -172 145.5 -276.5t340.5 -104.5q129 0 317 100v1174q-170 88 -311 88h-6 q-201 0 -343.5 -93.5t-142.5 -269.5v-618z" />
<glyph unicode="&#x153;" horiz-adv-x="1701" d="M147 297v469q0 145 110 227t259 84q115 -2 210 -52t134 -142q41 90 135.5 139t208.5 49q150 0 258.5 -82t108.5 -227v-273h-688v-192v-10q4 -121 97 -184.5t224 -63.5q205 0 287 129q10 -4 21.5 -11l19.5 -12q-43 -76 -132 -114.5t-196 -38.5q-115 0 -210 48t-134 140 q-39 -92 -134 -142t-210 -52q-150 2 -259.5 84t-109.5 227zM193 297q0 -131 96 -198.5t227 -67.5q121 0 215 61.5t105 177.5v523q-10 117 -104.5 177t-215.5 60q-131 0 -227 -67.5t-96 -196.5v-469zM883 532h643v234q0 125 -95.5 193.5t-226.5 68.5t-224 -64.5t-97 -185.5 v-12v-234z" />
<glyph unicode="&#x178;" horiz-adv-x="1167" d="M55 1450h62l461 -817l475 817h63l-514 -875v-575h-51v575zM344 1589.5q0 20.5 14.5 34.5t35 14t34.5 -14t14 -34.5t-14 -35t-34.5 -14.5t-35 14.5t-14.5 35zM713 1589.5q0 20.5 14 34.5t34.5 14t35 -14t14.5 -34.5t-14.5 -35t-35 -14.5t-34.5 14.5t-14 35z" />
<glyph unicode="&#x2c6;" horiz-adv-x="573" d="M61 1241l181 209h75l181 -209h-47l-172 182l-168 -182h-50z" />
<glyph unicode="&#x2dc;" horiz-adv-x="555" d="M53 1370q31 80 125 80q35 0 96.5 -27.5t96.5 -27.5q55 0 86 43l30 -11q-16 -31 -50 -55t-64 -24q-35 0 -102.5 29.5t-102.5 29.5q-49 0 -84 -49z" />
<glyph unicode="&#x2013;" horiz-adv-x="1024" d="M74 590v47h880v-47h-880z" />
<glyph unicode="&#x2014;" horiz-adv-x="1884" d="M31 561v105h1822v-105h-1822zM45 575h1794v76h-1794v-76zM59 590h1766v47h-1766v-47z" />
<glyph unicode="&#x2018;" horiz-adv-x="425" d="M141 1090l113 360h51l-92 -360h-72z" />
<glyph unicode="&#x2019;" horiz-adv-x="466" d="M152 1087l98 363h76l-129 -363h-45z" />
<glyph unicode="&#x201a;" horiz-adv-x="485" d="M109 -248l106 316h78l-137 -316h-47z" />
<glyph unicode="&#x201c;" horiz-adv-x="663" d="M147 1090l123 362h47l-96 -362h-74zM375 1090l123 362h47l-96 -362h-74z" />
<glyph unicode="&#x201d;" horiz-adv-x="727" d="M172 1075l80 375h72l-54 -184l-55 -191h-43zM401 1075l80 375h72l-53 -184l-56 -191h-43z" />
<glyph unicode="&#x201e;" horiz-adv-x="749" d="M119 -248l106 318h76l-135 -318h-47zM377 -248l106 318h84l-143 -318h-47z" />
<glyph unicode="&#x2022;" horiz-adv-x="739" d="M162 725q0 78 54 132t132 54t132.5 -54t54.5 -132t-54.5 -132t-132.5 -54t-132 54t-54 132z" />
<glyph unicode="&#x2026;" horiz-adv-x="1374" d="M209 59.5q0 26.5 18.5 45t45 18.5t45 -18.5t18.5 -45t-18.5 -45t-45 -18.5t-45 18.5t-18.5 45zM606 61.5q0 26.5 18.5 45t45 18.5t45 -18.5t18.5 -45t-18.5 -45t-45 -18.5t-45 18.5t-18.5 45zM1014 65.5q0 26.5 18.5 45t45 18.5t45 -18.5t18.5 -45t-18.5 -45t-45 -18.5 t-45 18.5t-18.5 45z" />
<glyph unicode="&#x2039;" horiz-adv-x="538" d="M115 604l250 371q2 0 19 -9q22 -11 22 -14q0 -5 -234 -348l236 -344l-43 -22z" />
<glyph unicode="&#x203a;" horiz-adv-x="557" d="M150 948l40 23l250 -367l-250 -371q-2 0 -18 10q-20 12 -20 13q0 5 233 348z" />
<glyph unicode="&#x20ac;" horiz-adv-x="1179" d="M68 580l8 43h117v168h-117l10 45h107v217q0 193 140 302t329 109q129 0 241.5 -55t175.5 -158l-43 -24q-53 90 -157.5 140t-216.5 50q-172 0 -296 -95t-124 -269v-217h555l-11 -45h-544v-168h561l-10 -43h-551v-185q0 -170 122.5 -266t290.5 -96q117 0 219.5 49 t165.5 141l39 -24q-63 -102 -178 -157.5t-246 -55.5q-186 0 -324 108.5t-138 300.5v185h-125z" />
<glyph unicode="&#x2122;" horiz-adv-x="1683" d="M59 1419v31h570v-31h-267v-698h-36v698h-267zM797 721v729h65l285 -612l158 343l91 192l36 77h65v-729h-37l2 706h-6l-285 -612h-49l-282 606h-9v-700h-34z" />
<glyph unicode="&#xe000;" horiz-adv-x="1060" d="M0 1060h1060v-1060h-1060v1060z" />
<glyph unicode="&#xfb01;" horiz-adv-x="954" d="M160 0v1155q0 135 81 213t208 90v-45q-111 -10 -177.5 -76.5t-66.5 -181.5v-289h229v-45h-229v-821h-45zM678 1331.5q0 22.5 17.5 40t40 17.5t40 -17.5t17.5 -40t-17.5 -40t-40 -17.5t-40 17.5t-17.5 40zM711 0v1067h47v-1067h-47z" />
<glyph unicode="&#xfb02;" horiz-adv-x="991" d="M164 0v1155q0 135 81 213t208 90v-45q-111 -10 -177.5 -76.5t-66.5 -181.5v-289h229v-45h-229v-821h-45zM692 293v1157h45v-1157q0 -248 209 -256v-45q-254 22 -254 301z" />
<glyph unicode="&#xfb03;" horiz-adv-x="1513" d="M164 0v1155q0 135 81 213t208 90v-45q-111 -10 -177.5 -76.5t-66.5 -181.5v-289h229v-45h-229v-821h-45zM700 0v1155q0 135 81 213t208 90v-45q-111 -10 -177.5 -76.5t-66.5 -181.5v-289h230v-45h-230v-821h-45zM1239 1331.5q0 22.5 17.5 40t40 17.5t40 -17.5t17.5 -40 t-17.5 -40t-40 -17.5t-40 17.5t-17.5 40zM1272 0v1067h47v-1067h-47z" />
<glyph unicode="&#xfb04;" horiz-adv-x="1548" d="M164 0v1155q0 135 81 213t208 90v-45q-111 -10 -177.5 -76.5t-66.5 -181.5v-289h229v-45h-229v-821h-45zM700 0v1155q0 135 81 213t208 90v-45q-111 -10 -177.5 -76.5t-66.5 -181.5v-289h230v-45h-230v-821h-45zM1239 293v1157h45v-1157q0 -248 209 -256v-45 q-254 22 -254 301z" />
</font>
</defs>
</svg>
