<?xml version="1.0" standalone="no"?>
<!DOCTYPE svg PUBLIC "-//W3C//DTD SVG 1.1//EN" "http://www.w3.org/Graphics/SVG/1.1/DTD/svg11.dtd" >
<svg xmlns="http://www.w3.org/2000/svg">
<metadata>
This is a custom SVG webfont generated by Font Squirrel.
Copyright   : Copyright c 2009 by  2009 Designed by Svetoslav Simov  Fontfabric Inc All rights reserved
Designer    : Svetoslav Simov
Foundry     :  2009 Designed by Svetoslav Simov  Fontfabric Inc
</metadata>
<defs>
<font id="UniSansLightItalic" horiz-adv-x="1034" >
<font-face units-per-em="2048" ascent="1548" descent="-500" />
<missing-glyph horiz-adv-x="614" />
<glyph unicode=" "  horiz-adv-x="614" />
<glyph unicode="&#x09;" horiz-adv-x="614" />
<glyph unicode="&#xa0;" horiz-adv-x="614" />
<glyph unicode="!" horiz-adv-x="552" d="M180 70q4 33 31 55t59.5 22t51 -22.5t14.5 -55t-29.5 -55t-58.5 -22.5t-52 22q-16 19 -16 45q-1 5 0 11zM246 268l166 1184h80l-166 -1184h-80z" />
<glyph unicode="&#x22;" horiz-adv-x="544" d="M293 1061l55 389h82q-16 -76 -46 -196.5t-44 -192.5h-47zM481 1061l56 389h79l-88 -389h-47z" />
<glyph unicode="#" horiz-adv-x="1464" d="M133 475l25 70h331l160 370h-373l27 72h379l201 463h80l-203 -463h379l200 463h82l-204 -463h331l-30 -72h-336l-158 -370h377q-6 -16 -16 -38l-13 -32h-383l-203 -475h-77l204 475h-381l-202 -475h-78l205 475h-324zM567 545h379l160 370h-379z" />
<glyph unicode="$" horiz-adv-x="1165" d="M113 248l77 31q33 -88 131.5 -142.5t227.5 -64.5l92 651q-82 18 -133 32.5t-113.5 44t-95.5 67.5t-49 99q-9 32 -9 69q0 33 7 69q29 156 170 250t327 108l29 205h60l-29 -205q332 -6 409 -227q-16 -8 -38.5 -15.5t-36.5 -13.5q-63 162 -322 178h-22l-86 -598 q106 -18 175.5 -40.5t139.5 -67.5t94 -124q13 -41 13 -91q0 -46 -11 -101q-37 -158 -186.5 -257t-335.5 -111l-29 -207h-59l29 207q-158 12 -272.5 75.5t-153.5 178.5zM326 1100q-6 -33 -7 -62q0 -35 10 -64q17 -52 70.5 -86t108.5 -52.5t143 -38.5l84 587 q-154 -12 -268 -86.5t-141 -197.5zM608 72q158 12 281 90t151 200q11 52 12 92q0 34 -10 62q-10 31 -23 54.5t-40 42t-50.5 31.5t-62.5 25.5t-68 19.5l-75 18l-25 4z" />
<glyph unicode="%" horiz-adv-x="1488" d="M162 -76l1251 1620l62 -43l-1250 -1618zM236 1079q25 174 115.5 270.5t217.5 96.5q133 0 194 -97q43 -69 43 -179q0 -44 -7 -95q-23 -170 -116 -269t-218 -99q-135 0 -196 96q-42 67 -42 174q1 47 9 102zM315 1079q-8 -57 -8 -102q0 -79 25 -123q39 -70 143 -70 q207 0 246 291q7 49 7 90q0 205 -171 205q-201 0 -242 -291zM856 373q25 178 115 272t219 94q131 0 192 -98q44 -70 44 -179q0 -44 -7 -93q-25 -170 -117 -268.5t-215 -98.5q-137 0 -197 95q-42 66 -42 173q0 48 8 103zM936 373q-7 -54 -7 -97q0 -83 25 -129q39 -70 146 -69 q203 0 243 291q7 49 7 90q0 207 -172 207q-102 0 -160.5 -71.5t-81.5 -221.5z" />
<glyph unicode="&#x26;" horiz-adv-x="1251" d="M162 399q10 74 44 136.5t94 113.5t112.5 86t136.5 80l-72 109q-25 39 -46 103q-16 47 -15 89q0 16 2 31q18 137 129.5 222t251.5 85q121 0 199 -82q65 -68 66 -162q0 -20 -3 -41q-18 -127 -108.5 -204.5t-250.5 -153.5l-34 -18l338 -402l147 201l57 -31l-161 -215 l200 -272h-96l-154 202q-117 -131 -229.5 -197.5t-249.5 -66.5q-176 0 -279 107q-84 86 -84 216q0 31 5 64zM242 403q-4 -30 -4 -57q0 -108 64 -176q81 -86 245 -86q205 0 407 244l-8 12l-352 424q-76 -41 -119 -67.5t-101.5 -72.5t-90 -100.5t-41.5 -120.5zM498 1151 l-2 -22q0 -42 19 -92q24 -62 46.5 -96t65.5 -93q6 4 47 22.5t52 24.5l48 26q37 19 51.5 30.5t43 32t41.5 37.5l32 40q18 23 26.5 48.5t12.5 51.5q3 20 3 38q0 71 -45 120q-56 61 -157 61q-104 0 -187 -64.5t-97 -164.5z" />
<glyph unicode="'" horiz-adv-x="380" d="M291 1059l55 391h80l-76 -391h-59z" />
<glyph unicode="(" horiz-adv-x="532" d="M239 702q69 489 392 879l55 -45q-299 -362 -367 -836q-17 -116 -16 -225q0 -339 158 -618q-8 -4 -70 -39q-169 302 -169 658q1 110 17 226z" />
<glyph unicode=")" horiz-adv-x="520" d="M14 -203q207 256 304 562q82 257 82 509q0 48 -3 95q-18 297 -145 553q16 12 67 38q141 -254 163 -573q4 -54 4 -108q0 -267 -89 -536q-106 -325 -323 -583z" />
<glyph unicode="*" horiz-adv-x="847" d="M236 1182q12 35 26 57l295 -100l39 313h63l-47 -313l145 44l169 52l10 -59l-318 -95l162 -260l-53 -39l-160 265l-225 -263q-10 6 -24 20l-17 17l234 264z" />
<glyph unicode="+" horiz-adv-x="1214" d="M203 659l10 78h473l66 461h75l-65 -461h455l-11 -78h-454l-66 -464h-76l66 464h-473z" />
<glyph unicode="," horiz-adv-x="499" d="M72 -262l174 377h98q-35 -76 -99.5 -190.5t-99.5 -186.5h-73z" />
<glyph unicode="-" horiz-adv-x="735" d="M158 575l10 78h580l-11 -78h-579z" />
<glyph unicode="." horiz-adv-x="448" d="M149.5 71.5q4.5 32.5 31 55.5t59 23t51 -23t14.5 -55.5t-29.5 -55t-58.5 -22.5t-52.5 22.5t-15 55z" />
<glyph unicode="/" horiz-adv-x="757" d="M41 -27l821 1526l66 -22l-819 -1526q-14 6 -36 12t-32 10z" />
<glyph unicode="0" horiz-adv-x="1230" d="M166 375l96 688q27 193 195 297t366 104q197 0 334 -104q115 -87 115 -237q0 -29 -4 -60l-97 -688q-18 -131 -109 -225.5t-207 -135.5t-241 -41q-199 0 -336 105q-116 88 -116 237q0 29 4 60zM246 375q-4 -25 -4 -48q0 -81 45 -141q57 -76 144 -104.5t194 -28.5 q104 0 199.5 29t173 104.5t94.5 188.5l96 688q4 25 4 49q0 81 -44 139q-56 76 -143 104.5t-192 28.5q-170 0 -308 -78.5t-163 -242.5z" />
<glyph unicode="1" horiz-adv-x="641" d="M207 1126l352 326h94l-202 -1452h-78l190 1362l-307 -283q-12 10 -26.5 25.5t-22.5 21.5z" />
<glyph unicode="2" horiz-adv-x="1116" d="M78 66l803 700q176 152 198 301q2 20 3 38q0 104 -77 179q-91 88 -262 94q-9 0 -18 1q-120 0 -220 -51q-108 -54 -173 -161l-66 33q82 137 200 195.5t290 60.5q201 -2 313 -109q92 -88 93 -222q0 -29 -5 -60q-27 -178 -229 -352l-723 -633h819l-10 -80h-916l-9 29z" />
<glyph unicode="3" horiz-adv-x="1155" d="M96 219l78 35q39 -94 143.5 -144.5t239.5 -50.5q174 0 310.5 87t158.5 245q27 178 -61 271.5t-269 91.5h-100l10 69h101q145 0 240 69t114 208q20 141 -78 216t-248 75q-111 0 -211 -42t-162 -122l-59 37q68 98 188.5 149t258.5 51q182 0 296.5 -93t90.5 -271 q-33 -227 -226 -307q240 -92 195 -404q-31 -195 -194.5 -302t-368.5 -107q-160 0 -278 59t-169 180z" />
<glyph unicode="4" horiz-adv-x="1101" d="M90 469l936 981h104l-137 -981h121l-10 -70h-121l-55 -399h-80l55 399h-780zM180 469h735l127 899z" />
<glyph unicode="5" horiz-adv-x="1185" d="M129 221l78 35q39 -90 138 -138t226 -48q172 0 315.5 97t166.5 261l10 78q23 164 -85 259t-280 95q-215 0 -411 -90q-4 0 -18.5 -2t-20.5 -2l94 664h856l-12 -80h-776l-68 -482q199 76 367 74q197 -2 328.5 -117.5t105.5 -316.5l-10 -80q-31 -201 -200 -320.5 t-372 -119.5q-332 0 -432 233z" />
<glyph unicode="6" horiz-adv-x="1265" d="M182 391l94 668q18 129 108.5 222t211.5 137q115 42 244 42h12q154 0 270.5 -57t161.5 -168l-76 -37q-41 88 -142 136t-226 48q-180 0 -320.5 -85t-163.5 -240l-51 -361q168 199 467 199q209 -2 343 -108q112 -88 112 -233q0 -29 -4 -60l-15 -103q-27 -188 -190.5 -294.5 t-372.5 -106.5h-8q-204 0 -339 104q-119 92 -119 245q0 25 3 52zM262 393q-4 -25 -3 -48q0 -121 98 -192q118 -85 298 -85q176 0 314.5 86t158.5 239l15 99q4 25 4 48q0 119 -95 191q-114 86 -290 86q-180 0 -321.5 -85t-164.5 -240z" />
<glyph unicode="7" horiz-adv-x="1005" d="M129 0l954 1374h-817l10 76h881l23 -68l-961 -1382h-90z" />
<glyph unicode="8" horiz-adv-x="1185" d="M123 391q20 145 106 246.5t228 142.5q-100 35 -141 123q-29 65 -29 141q0 27 4 56q27 174 168 271t317 97h39q178 0 293 -98q94 -81 94 -212q0 -28 -4 -58q-14 -100 -74.5 -187.5t-169.5 -124.5q125 -47 180 -150q39 -75 39 -171q0 -36 -6 -76q-31 -197 -195.5 -310.5 t-367.5 -113.5h-39q-201 0 -333 114q-113 97 -112 255q0 26 3 55zM201 393q-4 -27 -4 -52q0 -130 98 -207q117 -91 280 -91h39q164 0 307.5 92t165.5 258q5 38 6 72q0 56 -15 100q-24 72 -80 110t-125.5 54t-157.5 16h-39q-424 0 -475 -352zM367 1100q-4 -29 -5 -55 q0 -48 15 -86q23 -58 73 -86.5t107 -41t129 -12.5h39q356 0 397 281q4 25 4 48q0 107 -77 170q-94 77 -244 77h-39q-147 0 -263 -77t-136 -218z" />
<glyph unicode="9" horiz-adv-x="1247" d="M164 205l78 37q41 -88 140 -136.5t224 -48.5q180 0 321.5 85t164.5 241l49 356q-166 -184 -463 -184q-209 2 -344 108q-113 88 -113 234q0 29 4 59l17 111q27 188 190.5 294.5t372.5 106.5h8q204 0 339 -104q119 -92 119 -245q0 -25 -3 -52l-97 -686q-18 -129 -108 -222 t-211 -137q-115 -42 -244 -43q-6 0 -12 1q-154 0 -270.5 57t-161.5 168zM305 958q-4 -25 -4 -48q0 -119 96 -191q115 -86 291 -86q180 0 320.5 85t162.5 240l17 107q4 25 3 48q0 121 -98 193q-118 85 -298 85q-176 0 -314.5 -86t-158.5 -240z" />
<glyph unicode=":" horiz-adv-x="491" d="M180 117q2 33 29 55.5t59.5 22.5t52 -22.5t15.5 -55.5t-30.5 -55.5t-59.5 -22.5t-51 22q-15 18 -16 44q0 6 1 12zM289 891q4 33 29.5 55.5t58.5 22.5t52 -23q16 -19 16 -44q0 -5 -1 -11q-4 -33 -30.5 -55.5t-59 -22.5t-51.5 23q-15 18 -15 43q0 6 1 12z" />
<glyph unicode=";" horiz-adv-x="507" d="M84 -217l149 340h117l-186 -340h-80zM295 860q2 33 28.5 55.5t59.5 22.5t52 -23q16 -19 16 -44v-11q-4 -33 -31 -55.5t-59.5 -22.5t-51.5 23q-15 18 -15 44q0 5 1 11z" />
<glyph unicode="&#x3c;" horiz-adv-x="952" d="M203 584l10 73l735 406l-12 -88l-660 -354l562 -351l-13 -86z" />
<glyph unicode="=" horiz-adv-x="1146" d="M242 444l10 72h792l-10 -72h-792zM281 727l10 70h792l-10 -70h-792z" />
<glyph unicode="&#x3e;" horiz-adv-x="983" d="M199 184l12 82l659 355l-561 354l13 88l624 -406l-10 -73z" />
<glyph unicode="?" horiz-adv-x="962" d="M246 1298q156 156 379 156q180 0 296 -105q94 -86 94 -227q0 -32 -5 -67q-27 -180 -162 -289t-320 -141l-71 -394h-60l54 459q180 6 322 105.5t161 261.5q3 25 3 47q0 120 -81 190q-96 84 -246 84q-78 0 -170 -36.5t-157 -92.5zM330 66q4 33 29.5 55t58.5 22q31 0 49 -22 q15 -18 15 -44q0 -6 -1 -11q-4 -33 -28.5 -54.5t-55.5 -21.5q-33 0 -52 21q-16 18 -16 43q0 6 1 12z" />
<glyph unicode="@" horiz-adv-x="1562" d="M188 616q43 303 283 514t543 211q285 0 451 -166q138 -138 138 -332q0 -40 -6 -83q-33 -229 -207 -407q-166 -167 -307 -167h-16q-53 2 -71 40q-11 24 -11 65q0 24 4 55q-70 -76 -153.5 -118t-157.5 -42q-119 0 -173 78q-42 60 -42 144q0 25 4 53q31 217 181.5 391 t350.5 174q74 0 135.5 -52t61.5 -163q10 18 43 85t45 89h70l-264 -555q-35 -74 -39 -102l-2 -18q0 -56 63 -56q113 0 252 166t166 340q5 37 5 73q0 179 -130 301q-156 146 -397 146q-287 0 -500 -195.5t-252 -468.5q-7 -47 -7 -92q0 -106 37 -203q52 -140 158.5 -231.5 t255.5 -127.5q60 -14 125 -14q96 0 201 32q18 -53 21 -56q-133 -39 -254 -39q-19 0 -38 1q-138 7 -251 70.5t-190.5 159t-111.5 226.5q-21 82 -21 168q-1 52 7 106zM537 465q-3 -21 -3 -40q0 -68 34 -114q44 -59 130 -59q141 0 277.5 164t159.5 315q4 33 4 61 q0 169 -158 169h-4q-167 0 -291 -159q-124 -161 -149 -337z" />
<glyph unicode="A" horiz-adv-x="1267" d="M41 0l737 1479h117l326 -1479h-86l-113 504h-649l-246 -504h-86zM414 584h594l-181 835z" />
<glyph unicode="B" horiz-adv-x="1290" d="M174 -2l205 1454h545q168 0 267 -96q80 -77 80 -201q0 -30 -5 -63q-12 -92 -60.5 -174t-130.5 -125l-63 -25l65 -14q168 -69 168 -267q0 -44 -8 -94q-33 -207 -171 -301t-349 -94h-543zM266 78h465h14q370 0 414 317q5 38 6 73q0 121 -69 184q-86 79 -264 79h-9h-465z M369 803h465q143 0 240 71.5t116 215.5q4 27 3 51q0 103 -63 163q-78 75 -217 74h-464z" />
<glyph unicode="C" horiz-adv-x="1179" d="M170 403l90 644q18 131 110.5 229t217.5 144t260 46q154 0 273.5 -58t162.5 -171l-36 -18q-24 -12 -40 -19q-41 90 -145.5 138t-231.5 48q-178 0 -323.5 -90t-167.5 -249l-90 -644q-14 -109 41 -188.5t147 -115.5t207 -36q127 0 246 49.5t186 137.5q10 -4 29.5 -16.5 t34.5 -18.5q-76 -113 -215.5 -172t-292.5 -59q-211 0 -350.5 111t-112.5 308z" />
<glyph unicode="D" horiz-adv-x="1269" d="M182 0l203 1450h504q211 0 332 -100q98 -81 97 -229q0 -35 -5 -74l-90 -646q-29 -201 -177.5 -301t-359.5 -100h-504zM272 80h424q178 0 301 79t146 242l90 646q4 30 4 57q0 121 -81 186q-99 80 -277 80h-424z" />
<glyph unicode="E" horiz-adv-x="1171" d="M182 2l203 1448h877l-11 -80h-796l-86 -604h735l-12 -82h-736l-84 -602h797l-10 -80h-877z" />
<glyph unicode="F" horiz-adv-x="1118" d="M182 2l203 1448h864l-10 -80h-784l-90 -633h706l-10 -80h-707l-92 -655h-80z" />
<glyph unicode="G" horiz-adv-x="1337" d="M168 412l88 632q18 133 109.5 230.5t214 143.5t258.5 46q152 0 270.5 -59t163.5 -172q-14 -8 -39 -19.5t-37 -17.5q-39 94 -140.5 141t-232.5 47q-115 0 -217 -36.5t-178 -115.5t-92 -188l-88 -632q-23 -164 95 -254t298 -90t325.5 90t168.5 254l30 215h-444l10 80h524 l-41 -295q-29 -201 -199.5 -313.5t-383.5 -112.5t-352.5 112.5t-110.5 313.5z" />
<glyph unicode="H" horiz-adv-x="1409" d="M180 0l203 1450h80l-96 -686h886l97 686h80l-203 -1450h-80l94 684h-887l-94 -684h-80z" />
<glyph unicode="I" horiz-adv-x="475" d="M184 0l203 1448h80l-203 -1448h-80z" />
<glyph unicode="J" horiz-adv-x="1185" d="M66 299q18 2 41.5 8t35.5 8q14 -125 121 -193.5t250 -68.5q168 0 305 91.5t160 252.5l137 973h-483l10 80h563l-147 -1053q-18 -131 -106.5 -229t-207 -143t-247.5 -45q-172 0 -294 82.5t-138 236.5z" />
<glyph unicode="K" horiz-adv-x="1245" d="M182 2l203 1448h80l-119 -846l959 846h98l-776 -698l571 -750h-100l-537 692l-231 -202l-68 -490h-80z" />
<glyph unicode="L" horiz-adv-x="1036" d="M184 2l203 1450h80l-193 -1370h725l-10 -80h-805z" />
<glyph unicode="M" horiz-adv-x="1632" d="M176 0l203 1450h139l342 -1139l664 1139h135l-203 -1450h-80l195 1389l-680 -1170h-86l-354 1172l-195 -1391h-80z" />
<glyph unicode="N" horiz-adv-x="1411" d="M182 0l203 1450h100l650 -1350l190 1350h80l-203 -1450h-117l-636 1327l-187 -1327h-80z" />
<glyph unicode="O" horiz-adv-x="1396" d="M199 403l90 644q20 135 115.5 234t224.5 144t272 45q225 0 375 -111q125 -94 125 -250q0 -30 -4 -62l-90 -644q-18 -135 -114.5 -234t-226.5 -145.5t-274 -46.5q-223 0 -371 113q-126 96 -126 254q0 28 4 59zM279 403q-3 -25 -4 -47q0 -130 108 -208q127 -91 319.5 -91 t346 91.5t178.5 254.5l90 644q4 27 4 52q0 132 -108 206q-128 88 -324 88q-195 -2 -345.5 -90.5t-174.5 -255.5z" />
<glyph unicode="P" horiz-adv-x="1261" d="M184 2l203 1448h526q254 -4 355 -190q48 -89 48 -190q0 -79 -30 -165q-70 -199 -258 -289q-106 -53 -237 -53h-449l-78 -561h-80zM354 643h447q233 0 358 176q78 110 78 230q0 38 -8 77q-33 166 -191 222q-61 23 -135 22h-446z" />
<glyph unicode="Q" horiz-adv-x="1398" d="M203 416l86 618q20 135 116.5 234.5t225.5 144.5t272 45q225 0 373 -111q123 -93 123 -250q0 -30 -4 -63l-86 -618q-23 -152 -138 -260l-14 -13q12 -20 44 -65l40 -58q-10 -4 -72 -40l-77 116q-188 -106 -396 -106q-223 0 -371 112q-126 96 -126 255q0 28 4 59zM283 416 q-4 -26 -4 -51q0 -128 107 -204q128 -91 321 -91q190 0 346 90l-99 162l68 43l96 -156q96 102 111 207l86 618q4 28 4 53q0 131 -107 205q-127 88 -323 88q-195 -2 -345.5 -90t-174.5 -256z" />
<glyph unicode="R" horiz-adv-x="1277" d="M182 0l203 1450h526q207 0 320 -101q92 -83 92 -237q0 -33 -4 -70q-55 -408 -520 -407h-47l399 -635h-94l-400 635h-307l-88 -635h-80zM360 705h449q195 0 300 77.5t130 257.5q5 37 5 70q0 121 -72 184q-87 76 -252 76h-17h-448z" />
<glyph unicode="S" horiz-adv-x="1218" d="M150 233l75 33q39 -98 150.5 -153.5t247.5 -55.5q160 0 287.5 74t168.5 223q8 40 8 74q0 44 -13 80q-24 63 -92.5 102t-126.5 57.5t-161 41.5q-74 16 -131 34.5t-118.5 51t-98.5 74.5t-54 107q-10 35 -10 75q0 32 7 67q31 168 183.5 260t346.5 92q158 0 283 -63.5 t170 -179.5l-39 -16l-37 -15q-37 96 -146.5 149.5t-240.5 53.5q-166 0 -289 -68.5t-153 -214.5q-7 -33 -8 -63q0 -97 77 -157q100 -79 291 -118q106 -23 178 -47t145.5 -71.5t101.5 -123.5q16 -44 16 -98q0 -40 -9 -86q-33 -174 -193.5 -272t-357.5 -98q-154 0 -284.5 65 t-173.5 186z" />
<glyph unicode="T" horiz-adv-x="1128" d="M233 1372l11 80h1046l-10 -80h-483l-193 -1370h-80l193 1370h-484z" />
<glyph unicode="U" horiz-adv-x="1400" d="M233 418l146 1032h80l-146 -1032q-23 -166 95 -258t298.5 -92t326 92t167.5 258l146 1032h79l-145 -1032q-29 -203 -200 -317.5t-384 -114.5t-352.5 114.5t-110.5 317.5z" />
<glyph unicode="V" horiz-adv-x="1243" d="M227 1450h88l308 -1415l700 1413h86l-729 -1473h-129z" />
<glyph unicode="W" horiz-adv-x="1892" d="M238 1450h81l197 -1419h8l551 1208h84l213 -1208h8l596 1419h82l-633 -1468h-118l-203 1159l-533 -1159h-118z" />
<glyph unicode="X" horiz-adv-x="1206" d="M66 0l583 723l-377 725h90l345 -655l524 655h94l-582 -725l381 -723h-96l-340 666l-526 -666h-96z" />
<glyph unicode="Y" horiz-adv-x="1171" d="M260 1448h92l324 -803l547 803h94l-612 -875l-80 -573h-80l80 573z" />
<glyph unicode="Z" horiz-adv-x="1153" d="M63 47l1106 1329h-876l10 74h946l37 -45l-1108 -1331h893l-10 -74h-969z" />
<glyph unicode="[" horiz-adv-x="481" d="M123 -252l254 1798h266l-10 -65h-189l-233 -1667h188l-10 -66h-266z" />
<glyph unicode="\" horiz-adv-x="741" d="M209 1528l74 22l415 -1603l-75 -25z" />
<glyph unicode="]" horiz-adv-x="430" d="M-2 -268l8 75h184l236 1668h-184l10 71h266l-256 -1814h-264z" />
<glyph unicode="^" horiz-adv-x="1169" d="M266 911l457 539h74l317 -539h-92l-270 480l-394 -480h-92z" />
<glyph unicode="_" horiz-adv-x="1024" d="M2 -129l10 74h983l-10 -74h-983z" />
<glyph unicode="`" horiz-adv-x="430" d="M254 1448h117l108 -225h-78z" />
<glyph unicode="a" d="M152 305l63 447q25 172 153 249.5t304 77.5q203 0 344 -67l-142 -1012h-69l14 121q-139 -133 -340 -133q-150 0 -249 80q-82 66 -82 186q0 24 4 51zM223 305q-3 -22 -3 -42q0 -96 66 -146q79 -61 206 -62q92 0 182 39t155 105l107 759q-102 53 -264 54 q-150 0 -259.5 -62.5t-125.5 -195.5z" />
<glyph unicode="b" horiz-adv-x="1026" d="M145 41l199 1409h74l-64 -446q172 72 320 71h7q151 0 251 -86q84 -72 84 -185q0 -25 -4 -52l-62 -435q-20 -154 -145 -242.5t-279 -92.5q-199 0 -381 59zM227 98q127 -45 310 -45q121 0 222 71t115 189l62 439q3 22 3 42q0 89 -66 141q-81 65 -207 66q-133 0 -310 -73 l-12 -8z" />
<glyph unicode="c" horiz-adv-x="905" d="M162 309l61 441q23 154 148 238.5t278 84.5q104 0 189.5 -40t122.5 -115l-64 -39q-66 121 -258 120q-125 0 -225.5 -63.5t-116.5 -181.5l-61 -445q-3 -20 -3 -39q0 -93 67 -146q81 -65 208 -65q94 0 181 41t130 115l64 -33q-57 -92 -163 -144t-222 -52q-154 0 -256 85 q-84 70 -84 185q0 25 4 53z" />
<glyph unicode="d" horiz-adv-x="1046" d="M180 307l62 443q20 150 147 237q124 86 274 86h7q160 0 301 -67l61 444h74l-197 -1403q-211 -63 -399 -63q-154 4 -253 88q-81 68 -81 181q0 26 4 54zM256 307q-3 -23 -3 -44q0 -89 63 -142q79 -66 204 -66q170 0 324 49l114 828q-141 68 -301 67q-127 -2 -225 -65.5 t-115 -181.5z" />
<glyph unicode="e" horiz-adv-x="1005" d="M166 307l61 436q23 160 147 246t281 86q154 0 254 -84q82 -69 82 -185q0 -26 -4 -54q-23 -162 -147.5 -249t-286.5 -87q-158 0 -293 67l-27 -178q-3 -20 -2 -39q0 -96 70 -149q84 -63 209 -64q205 0 301 135l55 -30q-57 -82 -157.5 -127t-206.5 -45q-156 0 -257 84 q-83 69 -83 184q0 25 4 53zM268 547q154 -66 303 -66q133 0 229.5 65.5t117.5 205.5q3 21 2 40q0 96 -66 152q-80 68 -207 68q-129 0 -231.5 -68.5t-118.5 -198.5z" />
<glyph unicode="f" horiz-adv-x="536" d="M35 -307q78 63 98 196l176 1248q20 147 119.5 230t239.5 91l-11 -69q-113 -4 -188.5 -70t-89.5 -182l-37 -254h229l-10 -70h-229l-129 -924q-20 -154 -135 -243z" />
<glyph unicode="g" horiz-adv-x="1026" d="M152 -248l53 45q82 -74 216 -88q25 -3 49 -2q107 0 201 51q116 63 134 193l16 110q-166 -76 -315 -75h-7q-149 0 -248 85q-83 71 -83 184q0 25 4 52l64 457q20 150 142 233.5t273 85.5q156 0 375 -77l-149 -1053q-23 -154 -143 -233.5t-275 -79.5q-205 -1 -307 112z M246 307q-3 -23 -4 -43q0 -88 64 -139q79 -63 204 -68q131 2 307 70l14 10l115 813q-135 61 -305 62q-123 0 -220 -64.5t-112 -181.5z" />
<glyph unicode="h" horiz-adv-x="1081" d="M162 0l203 1450h73l-67 -485q170 76 317 75q154 4 255 -83t81 -238l-100 -719h-74l100 719q16 119 -64.5 182.5t-205.5 65.5q-154 0 -320 -64l-124 -903h-74z" />
<glyph unicode="i" horiz-adv-x="440" d="M182 -2l150 1065h74l-150 -1065h-74zM365 1414q25 22 53 22t47 -22q15 -18 15 -40q0 -5 -1 -10q-4 -29 -28.5 -50.5t-53 -21.5t-47.5 22q-15 18 -15 40q1 34 30 60z" />
<glyph unicode="j" horiz-adv-x="448" d="M-94 -373l10 74q231 6 264 254l156 1108h74l-156 -1108q-20 -154 -113.5 -238t-234.5 -90zM374 1424q26 22 54.5 22t46.5 -22q15 -18 15 -40q0 -5 -1 -10q-4 -29 -28.5 -50t-53 -21t-47.5 21q-15 18 -15 40q1 36 29 60z" />
<glyph unicode="k" horiz-adv-x="966" d="M160 0l202 1448h74l-139 -995l674 606h90l-524 -475l376 -584h-88l-348 530l-194 -170l-50 -360h-73z" />
<glyph unicode="l" horiz-adv-x="475" d="M195 309l159 1141h74l-160 -1141q-5 -35 -5 -64q0 -178 179 -177l-10 -74q-243 9 -243 239q0 35 6 76z" />
<glyph unicode="m" horiz-adv-x="1683" d="M166 0l139 999q131 86 344 86q223 0 320 -147q76 80 150.5 107.5t172.5 31.5q10 0 21 1q147 0 237 -84q78 -72 78 -192q0 -28 -4 -59l-104 -743h-76l102 739q7 32 7 60q0 114 -106 171q-75 40 -158 40q-62 0 -129 -23q-155 -53 -177 -194l-111 -793h-71l110 793l2 23 q0 90 -87 140q-89 53 -208 53h-21q-132 -5 -222 -59l-133 -950h-76z" />
<glyph unicode="n" horiz-adv-x="1089" d="M164 0l141 1006q229 78 397 77q152 -4 250 -88q81 -69 82 -185q0 -24 -4 -50l-106 -760h-74l106 760q3 20 3 39q0 91 -66 144q-80 65 -201 65q-168 0 -323 -62l-131 -946h-74z" />
<glyph unicode="o" horiz-adv-x="1030" d="M176 309l62 441q23 154 147.5 238.5t280.5 86.5q156 -2 257 -87q83 -70 83 -185q0 -26 -5 -53l-61 -441q-23 -154 -146.5 -238.5t-281.5 -86.5q-154 2 -256 87q-84 70 -84 185q0 25 4 53zM250 309q-3 -20 -3 -39q0 -94 68 -148q82 -65 207 -65q123 0 225.5 64.5 t118.5 187.5l62 441q3 20 2 39q0 94 -68 147q-82 63 -207 63t-226 -63.5t-118 -185.5z" />
<glyph unicode="p" d="M90 -371l195 1387q199 61 397 61q158 -2 256 -83q80 -66 80 -184q0 -27 -4 -56l-62 -441q-23 -152 -148 -240q-123 -87 -273 -87h-7q-182 4 -301 63l-59 -420h-74zM233 127q147 -66 304 -66q125 2 224 67t116 181l61 445q3 23 3 44q0 90 -63 141q-79 62 -206 62 q-193 0 -322 -43z" />
<glyph unicode="q" d="M170 315l61 441q23 152 146 236.5t278 86.5q121 0 193 -13t186 -52l-194 -1385h-74l59 428q-158 -70 -319 -73h-7q-149 0 -248 89q-84 76 -84 193q0 24 3 49zM246 315q-3 -22 -4 -43q0 -90 66 -142q81 -65 208 -67q164 0 322 80l116 820q-113 41 -311 41q-123 0 -221 -65 t-113 -179z" />
<glyph unicode="r" horiz-adv-x="628" d="M147 0l105 745q18 125 108.5 209t214.5 109q27 6 68 6q32 0 72 -4l-10 -72q-32 3 -60 4q-42 0 -74 -8q-94 -23 -163.5 -85t-81.5 -159l-105 -745h-74z" />
<glyph unicode="s" horiz-adv-x="864" d="M96 180l66 39q102 -170 299 -164q98 2 188 61.5t104.5 166t-52 154.5t-181.5 71q-70 12 -121 29.5t-102 48t-73.5 84t-12.5 125.5q20 152 154.5 227.5t283 57t219.5 -110.5l-53 -54q-59 78 -178 96.5t-226.5 -40t-127.5 -176.5q-6 -47 11 -85t37.5 -57.5t69 -37 t69.5 -21.5l73 -14q311 -57 280 -297q-18 -135 -126.5 -213t-243.5 -82q-119 -4 -212.5 46t-144.5 146z" />
<glyph unicode="t" horiz-adv-x="563" d="M201 319l161 1131h74l-55 -389h229l-10 -74h-229l-97 -668q-3 -22 -2 -41q0 -93 62 -146q76 -65 192 -64l-10 -70q-152 2 -244 86q-75 69 -75 183q0 24 4 52z" />
<glyph unicode="u" horiz-adv-x="1058" d="M193 305l106 756h74l-107 -756q-3 -20 -3 -39q0 -91 67 -144q80 -65 200 -65q172 0 324 62l131 942h74l-139 -1002q-233 -78 -400 -77q-152 4 -250 89q-81 70 -81 185q0 23 4 49z" />
<glyph unicode="v" horiz-adv-x="956" d="M195 1061h79l211 -1018l498 1018h78l-529 -1075h-108z" />
<glyph unicode="w" horiz-adv-x="1458" d="M195 1061h75l160 -1028l389 1028h113l106 -1024l445 1024h76l-467 -1067h-125l-97 1018l-387 -1018h-118z" />
<glyph unicode="x" horiz-adv-x="923" d="M63 0l420 530l-272 531h92l236 -479l370 479h90l-417 -531l270 -530h-90l-238 479l-370 -479h-91z" />
<glyph unicode="y" horiz-adv-x="1062" d="M174 -248l53 45q82 -74 216 -88q25 -3 49 -2q107 0 201 51q116 63 134 193l17 110q-166 -76 -316 -75h-7q-151 0 -250 85q-83 71 -83 184q0 25 5 52l104 752h74l-105 -752q-3 -22 -3 -42q0 -88 65 -140q80 -63 204 -68q131 2 308 70l14 10l129 922h72l-156 -1106 q-23 -154 -142.5 -233.5t-275.5 -79.5q-205 -1 -307 112z" />
<glyph unicode="z" horiz-adv-x="894" d="M55 57l809 934h-637l9 70h708l25 -49l-811 -940h667l-8 -72h-729z" />
<glyph unicode="{" horiz-adv-x="587" d="M207 608l8 62q150 25 193 334l43 296q16 121 61 182.5t150 61.5h61l-8 -69h-56q-72 0 -96 -39t-37 -138l-43 -299q-20 -158 -73.5 -245.5t-104.5 -108.5q86 -72 86 -238q0 -57 -10 -124l-43 -301q-5 -33 -5 -59q0 -41 12 -63q19 -38 91 -38h45l-10 -72h-49 q-165 0 -165 166q0 28 5 61l41 299q10 72 10 130q0 183 -106 202z" />
<glyph unicode="|" horiz-adv-x="471" d="M150 -344l264 1888h73l-264 -1888h-73z" />
<glyph unicode="}" horiz-adv-x="571" d="M33 -250l10 72h45q72 0 101.5 38t41.5 122l43 301q39 272 179 362q-47 18 -75 108q-15 49 -15 119q0 57 10 127l43 299q9 46 8 81q0 30 -6 51q-14 45 -86 45h-56l9 69h61q104 0 133 -61q18 -39 18 -102q0 -36 -5 -81l-43 -296q-10 -72 -11 -129q0 -186 109 -205l-8 -62 q-147 -25 -191 -332l-41 -299q-33 -227 -225 -227h-49z" />
<glyph unicode="~" horiz-adv-x="1103" d="M246 569q113 156 250 156q74 0 184 -80q88 -61 139 -61q94 0 203 131l33 -35q-104 -160 -246 -160q-86 0 -174 68l-25 16q-18 12 -25 17.5t-22.5 14.5t-27 13t-25.5 7t-29 3q-96 0 -202 -129q-8 8 -18.5 21.5t-14.5 17.5z" />
<glyph unicode="&#xa1;" horiz-adv-x="569" d="M176 -434l162 1153h82l-162 -1153h-82zM338 983q4 33 29.5 55.5t58.5 22.5t52 -23q16 -19 16 -44v-11q-4 -33 -30 -55.5t-58.5 -22.5t-52.5 23q-16 19 -16 44q0 5 1 11z" />
<glyph unicode="&#xa2;" horiz-adv-x="942" d="M166 315l61 433q18 139 130 223t259 98l27 188h64l-27 -186q209 -14 283 -156l-64 -38q-57 104 -229 120l-131 -931q211 16 286 155l60 -33q-98 -174 -357 -196l-26 -187h-64l27 187q-143 16 -231 100q-72 69 -71 176q0 23 3 47zM240 315q-3 -21 -4 -39q0 -79 56 -130 q69 -62 183 -78l131 927q-121 -16 -207 -78.5t-98 -164.5z" />
<glyph unicode="&#xa3;" horiz-adv-x="937" d="M61 0l9 68h213l92 659h-213l10 70h213l39 276q23 158 132.5 276.5t313.5 118.5q135 0 236 -92l-59 -51q-72 74 -193 74q-154 0 -244 -96.5t-108 -223.5l-41 -282h338l-11 -70h-337l-93 -659h502l-8 -68h-791z" />
<glyph unicode="&#xa4;" horiz-adv-x="1148" d="M145 289l123 110q-81 104 -81 248q0 37 6 78q25 180 172 322l-44 53q-34 41 -53 61l49 45l95 -112q166 117 340 116q176 0 309 -116q14 12 59 55t62 57l37 -45l-127 -114q85 -108 85 -250q0 -35 -6 -72q-25 -184 -172 -322l103 -114l-53 -45l-95 112q-162 -115 -340 -114 q-188 0 -313 110l-61 -56q-45 -42 -58 -52zM262 723q-5 -33 -5 -64q0 -133 86 -232q105 -122 275 -122q172 0 312.5 122t165.5 296q5 33 4 65q0 135 -85 234q-105 123 -278 123q-170 0 -310 -123t-165 -299z" />
<glyph unicode="&#xa5;" horiz-adv-x="1003" d="M152 344l18 70h332l18 127h-336q14 55 23 71h289l-338 840h92l321 -823l557 823h97l-580 -840h305l-24 -71h-332l-19 -127h347l-12.5 -39t-10.5 -31h-334l-47 -344h-74l48 344h-340z" />
<glyph unicode="&#xa6;" horiz-adv-x="436" d="M141 -274l101 716h77l-100 -716h-78zM285 750l94 675h78l-95 -675h-77z" />
<glyph unicode="&#xa7;" horiz-adv-x="1015" d="M113 -59l80 34q12 -70 72.5 -115.5t140.5 -53.5q24 -2 48 -2q55 0 110 12q79 16 138.5 73.5t69.5 137.5q3 16 3 31q0 31 -11 58q-16 40 -59 73.5t-79 55t-102 52.5l-90 46q-33 17 -80 51t-71.5 66t-38.5 79q-10 33 -10 70q0 16 2 32q25 172 268 272q-82 53 -119 113 q-29 46 -29 106q0 16 2 33q20 139 140.5 220t263.5 81q92 0 173 -40t105 -121q-16 -8 -37.5 -20.5t-33.5 -18.5q-51 127 -224 127q-109 0 -201.5 -62.5t-107.5 -165.5q-2 -13 -2 -26q0 -32 11 -59q15 -38 60.5 -71.5t76 -51t100.5 -52.5q68 -33 108.5 -58.5t90 -66.5 t68.5 -94q14 -37 14 -80q0 -18 -2 -37q-12 -82 -78 -158.5t-154 -123.5q70 -45 104 -112q26 -51 25 -103q0 -16 -2 -31q-14 -111 -88 -189.5t-173 -105.5q-81 -22 -162 -22q-19 0 -38 2q-100 6 -178.5 63.5t-103.5 151.5zM319 645q-3 -22 -3 -41q0 -53 25 -86 q34 -45 105 -84l216 -108q78 39 144 102.5t77 130.5q2 14 2 27q0 58 -37 107q-45 60 -109 98l-151 77q-251 -82 -269 -223z" />
<glyph unicode="&#xa8;" horiz-adv-x="614" d="M238 1391q2 27 23.5 45t48 18t43 -18.5t12.5 -44.5q-2 -27 -24 -45.5t-48.5 -18.5t-42.5 19q-13 15 -13 34q0 6 1 11zM606 1391q2 27 23.5 45t48.5 18t43 -18q13 -15 13 -35q0 -5 -1 -10q-2 -27 -23.5 -45.5t-48 -18.5t-43.5 19q-13 15 -13 34q0 6 1 11z" />
<glyph unicode="&#xa9;" horiz-adv-x="1626" d="M182 725q43 305 292 523t554 218t493 -218q152 -177 152 -412q0 -54 -8 -111q-43 -305 -292 -523t-554 -218t-492 218q-152 177 -153 412q0 54 8 111zM252 725q-7 -53 -7 -102q0 -215 137 -374q169 -196 447 -196q281 0 504 196.5t262 475.5q7 52 8 102q0 214 -137 373 q-168 197 -448 197q-279 0 -502 -195.5t-264 -476.5zM522 571l43 310q23 154 148 238.5t278 84.5q104 0 189.5 -40t122.5 -115l-64 -39q-66 121 -258 120q-125 0 -225.5 -63t-116.5 -182l-43 -314q-3 -20 -3 -39q0 -93 67 -146q81 -65 208 -64q94 0 181.5 40.5t130.5 114.5 l63 -33q-57 -92 -162.5 -144t-222.5 -52q-154 0 -256 85q-84 70 -84 185q0 25 4 53z" />
<glyph unicode="&#xaa;" horiz-adv-x="677" d="M201 981q16 109 100 162t197 53q88 0 170 -37l12 90q2 12 2 23q0 51 -40 80q-48 35 -126 34q-106 0 -186 -67l-43 45q104 92 241 92q102 0 170 -55q56 -46 56 -122q0 -16 -2 -34l-66 -459q-121 -37 -256 -37q-13 0 -27 1q-100 2 -158 64q-47 50 -47 127q0 19 3 40z M272 981q-2 -15 -2 -29q0 -56 33 -93q41 -46 113 -48q98 0 207 20l36 265q-90 33 -176 32q-188 0 -211 -147z" />
<glyph unicode="&#xab;" horiz-adv-x="784" d="M180 604l318 389l30 -21l27 -20l-285 -348l185 -348q-16 -8 -36 -20.5t-32 -18.5zM434 604l318 389l30 -21l27 -20l-289 -348l189 -348q-16 -8 -36 -20.5t-32 -18.5z" />
<glyph unicode="&#xac;" horiz-adv-x="1132" d="M180 725l10 72h936l-59 -428h-72l49 356h-864z" />
<glyph unicode="&#xad;" horiz-adv-x="681" d="M180 514l10 76h465l-10 -76h-465z" />
<glyph unicode="&#xae;" horiz-adv-x="1607" d="M168 725q43 305 292 523t554 218t492 -218q152 -177 153 -412q0 -54 -8 -111q-43 -305 -292 -523t-554 -218t-493 218q-152 177 -152 412q0 54 8 111zM240 725q-7 -52 -8 -102q0 -213 137 -372q168 -196 446.5 -196t501.5 195.5t262 474.5q7 52 7 102q0 213 -136 372 q-168 196 -446.5 196t-500.5 -195.5t-263 -474.5zM592 309l117 842h292q133 0 199 -68q54 -55 54 -135q0 -18 -3 -37q-14 -106 -87.5 -170.5t-178.5 -83.5l203 -348h-82l-207 348h-188l-49 -348h-70zM719 723h162q78 0 133 11t105 56.5t61 120.5q2 15 2 30q0 66 -48 101 q-58 43 -147 43h-217z" />
<glyph unicode="&#xaf;" horiz-adv-x="524" d="M186 1364l11 78h499l-10 -78h-500z" />
<glyph unicode="&#xb0;" horiz-adv-x="714" d="M268 1206q14 104 100.5 178t191 74t167.5 -74q52 -60 52 -140q0 -18 -3 -38q-14 -106 -99 -181t-189.5 -75t-169.5 75q-53 61 -52 144q-1 18 2 37zM334 1204q-2 -14 -2 -28q0 -62 39 -108q47 -56 124.5 -56t141 56t74.5 136q2 14 1 28q0 62 -38 108q-47 56 -125 56.5 t-141.5 -56t-73.5 -136.5z" />
<glyph unicode="&#xb1;" horiz-adv-x="1161" d="M190 215l11 70h839l-10 -70h-840zM264 801l10 71h385l54 367h71l-53 -367h399l-10 -71h-399l-51 -373h-72l51 373h-385z" />
<glyph unicode="&#xb2;" horiz-adv-x="692" d="M145 651l463 396q51 43 85 103q27 49 27 93q0 11 -1 21q-27 86 -126 108q-36 8 -71 8q-60 0 -116 -24q-72 -29 -107 -76q-12 4 -30 13l-25 14q59 82 155 116h-2q80 23 159 24h4q77 0 141 -41q67 -42 87 -118q4 -20 4 -40q0 -55 -28 -112q-39 -79 -109 -135l-399 -335h457 l-8 -64h-547l-5 25q-4 14 -8 24z" />
<glyph unicode="&#xb3;" horiz-adv-x="706" d="M176 760l55 26q18 -51 76 -80.5t123 -33.5q12 -1 24 -1q93 0 173 58q59 43 71 121q2 17 3 33q0 65 -42 101q-47 40 -124 40h-15h-41l6 51h41q78 0 140 51q45 39 52 99q1 11 1 21q0 45 -25 77q-49 63 -149 63q-143 0 -213 -96l-45 27q41 61 112.5 92t143.5 35q10 1 19 1 q49 0 95 -18q55 -20 86 -61q40 -46 40 -112q0 -18 -3 -37q-14 -90 -90 -144l-33 -16q109 -38 109 -168q0 -138 -107 -211q-93 -70 -222 -70h-21h2q-84 4 -151.5 43t-90.5 109z" />
<glyph unicode="&#xb4;" horiz-adv-x="450" d="M297 1204l164 246h112l-204 -246h-72z" />
<glyph unicode="&#xb5;" horiz-adv-x="1028" d="M78 -446l211 1509h78l-95 -674q-3 -41 -3 -82q0 -34 2 -66q5 -73 60.5 -124t153.5 -51q154 0 265.5 104t140.5 303l82 590h78l-142 -1063h-73l24 211q-57 -100 -164.5 -157.5t-220.5 -57.5q-180 0 -239 141l-82 -583h-76z" />
<glyph unicode="&#xb6;" horiz-adv-x="1128" d="M201 1012q25 178 169 308t371 130h445l-238 -1688h-67l229 1633h-307l-230 -1633h-69l117 824q-221 0 -333 128q-91 105 -92 238q1 29 5 60z" />
<glyph unicode="&#xb7;" horiz-adv-x="532" d="M278.5 651q4.5 33 31 55.5t59 22.5t51 -22.5t14.5 -55.5t-29.5 -55.5t-58.5 -22.5t-52.5 22.5t-15 55.5z" />
<glyph unicode="&#xb8;" horiz-adv-x="499" d="M37 -334l16 47q51 -23 119 -22q49 0 95 24.5t52 73.5q1 7 1 14q0 37 -28 56q-34 23 -87 22q-45 0 -70 -10l-6 6l113 141h57l-74 -92q21 4 40 5q54 0 88 -35q36 -37 37 -82q0 -12 -3 -25q-10 -57 -53 -96t-95 -52q-36 -9 -73 -10q-17 0 -35 2q-55 6 -94 33z" />
<glyph unicode="&#xb9;" horiz-adv-x="577" d="M297 1237l221 215h74l-117 -827h-69l104 735l-164 -164z" />
<glyph unicode="&#xba;" horiz-adv-x="745" d="M209 973l35 237q14 111 111.5 173.5t214 62.5t195.5 -63q67 -53 67 -140q0 -16 -3 -33l-34 -237q-16 -111 -112.5 -173.5t-213.5 -62.5t-197 63q-66 52 -66 137q0 17 3 36zM281 979q-2 -15 -3 -30q0 -68 50 -102q59 -42 151 -42t164 42t84 132l31 225q2 15 2 30 q0 68 -49 102q-59 42 -151.5 42t-164 -42t-84.5 -132z" />
<glyph unicode="&#xbb;" horiz-adv-x="788" d="M160 256l289 348l-189 348q16 8 35.5 20.5t32.5 18.5l207 -387l-318 -389l-31 22zM410 256l288 348l-188 348q16 8 35.5 20.5t32.5 18.5l206 -387l-317 -389l-31 22z" />
<glyph unicode="&#xbc;" horiz-adv-x="1394" d="M172 -6l1124 1497q12 -8 28 -20l24 -17l-1125 -1495zM242 1237l221 215h69l-116 -827h-66l105 735l-166 -162zM725 270l524 566h94l-79 -572h67l-8 -57h-68l-28 -207h-66l29 207h-432zM797 264h401l78 514z" />
<glyph unicode="&#xbd;" horiz-adv-x="1556" d="M199 -6l1124 1497q12 -8 28 -20l23 -17l-1124 -1495zM262 1237l221 215h70l-117 -827h-65l104 735l-166 -162zM889 49q80 66 236 207l229 203q70 59 92 109q15 34 15 74q0 18 -3 36q-39 114 -169 114h-2q-132 -1 -214 -102q-14 6 -61 29q55 82 155 117h-2q76 25 150 24.5 t136 -42.5t83 -118q4 -20 4 -40q0 -55 -29 -112q-39 -79 -108 -134l-393 -346h448l-8 -68h-547l-5 25q-3 14 -7 24z" />
<glyph unicode="&#xbe;" horiz-adv-x="1556" d="M219 760l55 26q18 -51 76 -80.5t123 -33.5q12 -1 24 -1q93 0 173 58q59 43 71 121q2 17 3 33q0 65 -42 101q-47 40 -124 40h-15h-41l6 51h41q78 0 140 51q45 39 52 99q1 11 1 21q0 45 -25 77q-49 63 -149 63q-143 0 -213 -96l-45 27q41 61 112.5 92t143.5 35q10 1 19 1 q49 0 95 -18q55 -20 86 -61q40 -46 40 -112q0 -18 -3 -37q-14 -90 -90 -144l-33 -16q109 -38 109 -168q0 -138 -107 -211q-93 -70 -222 -70h-21h2q-84 4 -151.5 43t-90.5 109zM367 -6l1124 1497q12 -8 27 -20l22 -17l-1124 -1495zM862 270l524 566h95l-80 -572h67l-8 -57 h-67l-29 -207h-66l29 207h-432zM934 264h401l78 514z" />
<glyph unicode="&#xbf;" horiz-adv-x="978" d="M80 4q27 180 162 288.5t317 141.5l34 181.5t38 211.5h59l-51 -458q-180 -6 -322.5 -105.5t-160.5 -261.5q-3 -25 -3 -48q0 -120 80 -190q96 -84 246 -83q78 0 170 36.5t156 92.5l39 -50q-156 -156 -381 -155q-180 0 -295 105q-93 86 -93 226q0 32 5 68zM608 993 q4 33 29 54.5t55 21.5q33 0 52 -21q16 -18 17 -44q0 -5 -1 -11q-4 -33 -31 -55.5t-59 -22.5q-31 0 -48 23q-14 18 -15 43q0 6 1 12z" />
<glyph unicode="&#xc0;" horiz-adv-x="1267" d="M41 0l737 1479h117l326 -1479h-86l-113 504h-649l-246 -504h-86zM414 584h594l-181 835zM678 1780h117l108 -226h-78z" />
<glyph unicode="&#xc1;" horiz-adv-x="1267" d="M41 0l737 1479h117l326 -1479h-86l-113 504h-649l-246 -504h-86zM414 584h594l-181 835zM786 1546l162 246h113l-203 -246h-72z" />
<glyph unicode="&#xc2;" horiz-adv-x="1267" d="M41 0l737 1479h117l326 -1479h-86l-113 504h-649l-246 -504h-86zM414 584h594l-181 835zM594 1524l231 223h90l170 -223h-75l-148 176l-190 -176h-78z" />
<glyph unicode="&#xc3;" horiz-adv-x="1267" d="M41 0l737 1479h117l326 -1479h-86l-113 504h-649l-246 -504h-86zM414 584h594l-181 835zM645 1585q41 100 137 101q27 0 78 -28t82 -28q49 0 80 47l39 -16q-16 -45 -53 -73.5t-74 -28.5q-33 0 -88 27.5t-84 27.5q-45 0 -76 -53z" />
<glyph unicode="&#xc4;" horiz-adv-x="1267" d="M41 0l737 1479h117l326 -1479h-86l-113 504h-649l-246 -504h-86zM414 584h594l-181 835zM666 1652q20 17 42.5 17t36 -17.5t11.5 -43.5q-2 -25 -21.5 -43.5t-42 -18.5t-38.5 19q-12 15 -12 33q1 34 24 54zM967 1608q2 27 21.5 44t42 17t35.5 -17q12 -15 12 -37 q0 -27 -23 -50q-18 -18 -41 -18.5t-37 18.5q-11 14 -11 32q0 6 1 11z" />
<glyph unicode="&#xc5;" horiz-adv-x="1267" d="M41 0l737 1479h117l326 -1479h-86l-113 504h-649l-246 -504h-86zM414 584h594l-181 835zM698 1692q10 72 68.5 123t128.5 51t111 -54q33 -43 32 -95q0 -13 -2 -27q-10 -68 -66.5 -120t-123.5 -52q-70 0 -114 51q-36 42 -36 96q0 13 2 27zM758 1690q-1 -8 -1 -16 q0 -35 22 -62q28 -33 73 -33t82 34t43 79q1 8 1 16q0 35 -23 62q-28 34 -72.5 34t-80.5 -34.5t-44 -79.5z" />
<glyph unicode="&#xc6;" horiz-adv-x="1562" d="M8 -2l934 1452h764l-10 -76h-623l-88 -631h559l-12 -77h-559l-82 -592h622l-10 -74h-698l69 504h-450l-328 -506h-88zM471 580h414l112 802l-16 2z" />
<glyph unicode="&#xc7;" horiz-adv-x="1179" d="M170 403l90 644q18 131 110.5 229t217.5 144t260 46q154 0 273.5 -58t162.5 -171l-36 -18q-24 -12 -40 -19q-41 90 -145.5 138t-231.5 48q-178 0 -323.5 -90t-167.5 -249l-90 -644q-3 -22 -3 -43q0 -82 44 -145q55 -80 147 -116t207 -36q127 0 246 49.5t186 137.5l64 -35 q-76 -113 -215.5 -172t-292.5 -59h-4l-41 -56q21 4 39 5q53 0 87 -35q36 -37 36 -82q0 -12 -2 -25q-10 -57 -53.5 -96t-95.5 -52q-36 -9 -73 -9q-17 0 -34 1q-55 6 -95 33l17 47q51 -23 118 -22q49 0 95.5 24.5t52.5 73.5q1 7 1 14q0 37 -29 56q-34 23 -87 22q-45 0 -69 -10 l-7 6q45 59 86 107q-190 14 -311 125q-99 91 -99 229q0 30 5 63z" />
<glyph unicode="&#xc8;" horiz-adv-x="1171" d="M182 2l203 1448h877l-11 -80h-796l-86 -604h735l-12 -82h-736l-84 -602h797l-10 -80h-877zM678 1757h117l110 -225h-78z" />
<glyph unicode="&#xc9;" horiz-adv-x="1171" d="M182 2l203 1448h877l-11 -80h-796l-86 -604h735l-12 -82h-736l-84 -602h797l-10 -80h-877zM797 1538l164 246h112l-205 -246h-71z" />
<glyph unicode="&#xca;" horiz-adv-x="1171" d="M182 2l203 1448h877l-11 -80h-796l-86 -604h735l-12 -82h-736l-84 -602h797l-10 -80h-877zM600 1524l231 223h91l170 -223h-82l-142 174l-186 -174h-82z" />
<glyph unicode="&#xcb;" horiz-adv-x="1171" d="M182 2l203 1448h877l-11 -80h-796l-86 -604h735l-12 -82h-736l-84 -602h797l-10 -80h-877zM608 1616q4 27 25.5 45t48.5 18t42 -18.5t11 -44.5q-2 -27 -23.5 -45.5t-48 -18.5t-42.5 19q-13 15 -14 35q0 5 1 10zM977 1616q4 27 25.5 45t48 18t42.5 -18q12 -15 12 -34 q0 -5 -1 -11q-2 -27 -23.5 -45.5t-48 -18.5t-43.5 19q-13 15 -13 35q0 5 1 10z" />
<glyph unicode="&#xcc;" horiz-adv-x="475" d="M184 0l203 1448h80l-203 -1448h-80zM270 1759h117l107 -213h-78z" />
<glyph unicode="&#xcd;" horiz-adv-x="475" d="M184 0l203 1448h80l-203 -1448h-80zM387 1534l164 246h113l-205 -246h-72z" />
<glyph unicode="&#xce;" horiz-adv-x="475" d="M184 0l203 1448h80l-203 -1448h-80zM201 1526l233 223h90l168 -223h-86l-137 166l-184 -166h-84z" />
<glyph unicode="&#xcf;" horiz-adv-x="475" d="M184 0l203 1448h80l-203 -1448h-80zM209 1624q2 27 23.5 45.5t48 18.5t43 -18.5t12.5 -45.5q-2 -27 -23.5 -45t-48 -18t-43.5 18q-13 15 -13 35q0 5 1 10zM578 1624q2 27 23.5 45.5t48 18.5t42.5 -19q13 -15 13 -35v-10q-2 -27 -24 -45t-48.5 -18t-42.5 18q-13 15 -13 35 q0 5 1 10z" />
<glyph unicode="&#xd0;" horiz-adv-x="1255" d="M133 682l10 74h129l99 694h463q213 0 351 -112q116 -94 116 -249q0 -30 -5 -63l-86 -604q-18 -135 -108 -233.5t-213 -143.5t-258 -45h-463l94 682h-129zM258 80h383q180 0 323.5 90t165.5 252l87 604q4 26 3 51q0 128 -99 203q-118 90 -298 90h-383l-88 -614h256 l-10 -74h-256z" />
<glyph unicode="&#xd1;" horiz-adv-x="1411" d="M182 0l203 1450h100l650 -1350l190 1350h80l-203 -1450h-117l-636 1327l-187 -1327h-80zM682 1577q43 102 156 102q31 0 90 -28.5t94 -28.5q55 0 90 51l45 -18q-18 -47 -59 -77t-84 -30q-37 0 -100.5 30t-96.5 30q-53 0 -90 -58z" />
<glyph unicode="&#xd2;" horiz-adv-x="1396" d="M199 403l90 644q20 135 115.5 234t224.5 144t272 45q225 0 375 -111q125 -94 125 -250q0 -30 -4 -62l-90 -644q-18 -135 -114.5 -234t-226.5 -145.5t-274 -46.5q-223 0 -371 113q-126 96 -126 254q0 28 4 59zM279 403q-3 -25 -4 -47q0 -130 108 -208q127 -91 319.5 -91 t346 91.5t178.5 254.5l90 644q4 27 4 52q0 132 -108 206q-128 88 -324 88q-195 -2 -345.5 -90.5t-174.5 -255.5zM725 1772h117l110 -226h-78z" />
<glyph unicode="&#xd3;" horiz-adv-x="1396" d="M199 403l90 644q20 135 115.5 234t224.5 144t272 45q225 0 375 -111q125 -94 125 -250q0 -30 -4 -62l-90 -644q-18 -135 -114.5 -234t-226.5 -145.5t-274 -46.5q-223 0 -371 113q-126 96 -126 254q0 28 4 59zM279 403q-3 -25 -4 -47q0 -130 108 -208q127 -91 319.5 -91 t346 91.5t178.5 254.5l90 644q4 27 4 52q0 132 -108 206q-128 88 -324 88q-195 -2 -345.5 -90.5t-174.5 -255.5zM883 1544l164 246h112l-205 -246h-71z" />
<glyph unicode="&#xd4;" horiz-adv-x="1396" d="M199 403l90 644q20 135 115.5 234t224.5 144t272 45q225 0 375 -111q125 -94 125 -250q0 -30 -4 -62l-90 -644q-18 -135 -114.5 -234t-226.5 -145.5t-274 -46.5q-223 0 -371 113q-126 96 -126 254q0 28 4 59zM279 403q-3 -25 -4 -47q0 -130 108 -208q127 -91 319.5 -91 t346 91.5t178.5 254.5l90 644q4 27 4 52q0 132 -108 206q-128 88 -324 88q-195 -2 -345.5 -90.5t-174.5 -255.5zM674 1530l233 223h90l168 -223h-80l-143 172l-184 -172h-84z" />
<glyph unicode="&#xd5;" horiz-adv-x="1396" d="M199 403l90 644q20 135 115.5 234t224.5 144t272 45q225 0 375 -111q125 -94 125 -250q0 -30 -4 -62l-90 -644q-18 -135 -114.5 -234t-226.5 -145.5t-274 -46.5q-223 0 -371 113q-126 96 -126 254q0 28 4 59zM279 403q-3 -25 -4 -47q0 -130 108 -208q127 -91 319.5 -91 t346 91.5t178.5 254.5l90 644q4 27 4 52q0 132 -108 206q-128 88 -324 88q-195 -2 -345.5 -90.5t-174.5 -255.5zM731 1573q39 94 135 94q27 0 79 -25.5t81 -25.5q49 0 78 45l41 -16q-16 -43 -52 -71t-73 -28q-31 0 -87 28t-85 28q-47 0 -76 -54z" />
<glyph unicode="&#xd6;" horiz-adv-x="1396" d="M199 403l90 644q20 135 115.5 234t224.5 144t272 45q225 0 375 -111q125 -94 125 -250q0 -30 -4 -62l-90 -644q-18 -135 -114.5 -234t-226.5 -145.5t-274 -46.5q-223 0 -371 113q-126 96 -126 254q0 28 4 59zM279 403q-3 -25 -4 -47q0 -130 108 -208q127 -91 319.5 -91 t346 91.5t178.5 254.5l90 644q4 27 4 52q0 132 -108 206q-128 88 -324 88q-195 -2 -345.5 -90.5t-174.5 -255.5zM688 1604q2 27 23.5 45t48 18t43 -18.5t12.5 -45t-25.5 -45t-48 -18.5t-42.5 19q-12 15 -12 34q0 5 1 11zM1057 1604q2 27 23.5 45t48 18t42.5 -18 q13 -15 14 -35q0 -5 -1 -10q-4 -27 -25.5 -45.5t-48.5 -18.5t-42 19q-12 15 -12 34q0 5 1 11z" />
<glyph unicode="&#xd7;" horiz-adv-x="1148" d="M250 362l375 328l-287 336l63 53l287 -334l371 326l47 -53l-373 -326l277 -321l-62 -56l-276 322l-375 -330z" />
<glyph unicode="&#xd8;" horiz-adv-x="1396" d="M199 408l90 636q20 135 115.5 234.5t224.5 144.5t272 45q115 0 240 -38l82 145q14 -6 33.5 -12.5t27.5 -10.5l-82 -149q104 -57 159 -149q41 -68 40 -151q0 -28 -4 -59l-90 -636q-18 -135 -114.5 -234.5t-226.5 -145.5t-274 -46q-104 0 -231 38l-80 -151q-16 6 -34.5 11 t-31.5 9l84 158q-204 112 -204 307q0 27 4 54zM279 408q-2 -20 -3 -39q0 -154 162 -252l662 1243q-109 31 -211 31q-195 -2 -345.5 -90.5t-174.5 -256.5zM502 92q100 -31 203 -31q193 0 346 91.5t176 255.5l90 636q3 22 3 44q0 152 -157 245z" />
<glyph unicode="&#xd9;" horiz-adv-x="1400" d="M233 418l146 1032h80l-146 -1032q-4 -27 -3 -52q0 -129 99 -206q118 -92 298 -92t325.5 92t167.5 258l146 1032h79l-145 -1032q-29 -203 -200 -317.5t-384 -114.5t-352 114q-115 95 -115 251q-1 32 4 67zM745 1749h117l109 -225h-78z" />
<glyph unicode="&#xda;" horiz-adv-x="1400" d="M233 418l146 1032h80l-146 -1032q-4 -27 -3 -52q0 -129 99 -206q118 -92 298 -92t325.5 92t167.5 258l146 1032h79l-145 -1032q-29 -203 -200 -317.5t-384 -114.5t-352 114q-115 95 -115 251q-1 32 4 67zM842 1526l164 246h112l-205 -246h-71z" />
<glyph unicode="&#xdb;" horiz-adv-x="1400" d="M233 418l146 1032h80l-146 -1032q-4 -27 -3 -52q0 -129 99 -206q118 -92 298 -92t325.5 92t167.5 258l146 1032h79l-145 -1032q-29 -203 -200 -317.5t-384 -114.5t-352 114q-115 95 -115 251q-1 32 4 67zM670 1532l231 223h90l170 -223h-76l-147 176l-190 -176h-78z" />
<glyph unicode="&#xdc;" horiz-adv-x="1400" d="M233 418l146 1032h80l-146 -1032q-4 -27 -3 -52q0 -129 99 -206q118 -92 298 -92t325.5 92t167.5 258l146 1032h79l-145 -1032q-29 -203 -200 -317.5t-384 -114.5t-352 114q-115 95 -115 251q-1 32 4 67zM684 1612q2 27 23.5 45t48 18t43 -18.5t12.5 -44.5 q-2 -27 -23.5 -45.5t-48 -18.5t-43.5 19q-13 15 -13 34q0 6 1 11zM1053 1612q2 27 23.5 45t48 18t42.5 -18q13 -15 13 -35v-10q-2 -27 -23.5 -45.5t-48.5 -18.5t-43 19q-13 15 -13 34q0 6 1 11z" />
<glyph unicode="&#xdd;" horiz-adv-x="1171" d="M260 1448h92l324 -803l547 803h94l-612 -875l-80 -573h-80l80 573zM756 1526l164 246h112l-205 -246h-71z" />
<glyph unicode="&#xde;" horiz-adv-x="1097" d="M180 0l203 1454h82l-41 -299q127 16 215 16q266 0 392 -108q103 -88 103 -242q0 -35 -6 -73q-16 -115 -76.5 -200t-151.5 -131t-191.5 -67.5t-212.5 -21.5h-101q4 18 11 42q8 24 10 36h84q96 0 179 14t164 50t135 106.5t69 171.5q3 26 3 50q0 51 -15 95q-22 63 -62.5 100 t-103 59.5t-123 31t-128.5 8.5q-115 0 -206 -17l-150 -1075h-82z" />
<glyph unicode="&#xdf;" horiz-adv-x="1173" d="M143 -2l158 1122q25 170 170 270.5t320 100.5q178 0 294 -94q96 -78 97 -208q0 -27 -4 -56q-29 -219 -244 -332q218 -80 218 -304q0 -35 -5 -73q-33 -201 -205 -322q-166 -117 -361 -116h-14q-102 4 -219 55q10 53 14 84q133 -55 213 -57q7 0 14 -1q166 0 307 96 q146 99 169 263q4 32 4 62q0 123 -76 191q-92 83 -258 83h-8h-213l10 74h213q137 0 239.5 77.5t121.5 219.5q4 25 3 48q0 107 -78 166q-95 71 -243 70q-145 0 -262 -75.5t-139 -221.5l-158 -1122h-78z" />
<glyph unicode="&#xe0;" d="M150 305l63 447q25 172 153 249.5t304 77.5q203 0 344 -67l-140 -1012h-71l14 121q-139 -133 -340 -133q-150 0 -249 80q-82 66 -82 186q0 24 4 51zM221 305q-3 -22 -3 -42q0 -96 66 -146q79 -61 205 -62q92 0 182.5 39t155.5 105l107 759q-102 53 -264 54 q-150 0 -259.5 -62.5t-125.5 -195.5zM530 1411h117l111 -225h-78z" />
<glyph unicode="&#xe1;" d="M150 305l63 447q25 172 153 249.5t304 77.5q203 0 344 -67l-140 -1012h-71l14 121q-139 -133 -340 -133q-150 0 -249 80q-82 66 -82 186q0 24 4 51zM221 305q-3 -22 -3 -42q0 -96 66 -146q79 -61 205 -62q92 0 182.5 39t155.5 105l107 759q-102 53 -264 54 q-150 0 -259.5 -62.5t-125.5 -195.5zM635 1165l164 246h112l-204 -246h-72z" />
<glyph unicode="&#xe2;" d="M152 305l63 447q25 172 153 249.5t304 77.5q203 0 344 -67l-142 -1012h-69l14 121q-139 -133 -340 -133q-150 0 -249 80q-82 66 -82 186q0 24 4 51zM223 305q-3 -22 -3 -42q0 -96 66 -146q79 -61 206 -62q92 0 182 39t155 105l107 759q-102 53 -264 54 q-150 0 -259.5 -62.5t-125.5 -195.5zM442 1227l232 223h90l170 -223h-76l-147 176l-191 -176h-78z" />
<glyph unicode="&#xe3;" d="M150 305l63 447q25 172 153 249.5t304 77.5q203 0 344 -67l-140 -1012h-71l14 121q-139 -133 -340 -133q-150 0 -249 80q-82 66 -82 186q0 24 4 51zM221 305q-3 -22 -3 -42q0 -96 66 -146q79 -61 205 -62q92 0 182.5 39t155.5 105l107 759q-102 53 -264 54 q-150 0 -259.5 -62.5t-125.5 -195.5zM487 1210q39 94 144 95q31 0 86 -27t88 -27q51 0 86 47l41 -16q-16 -43 -55 -70.5t-78 -27.5q-35 0 -93.5 27.5t-89.5 27.5q-53 0 -86 -53z" />
<glyph unicode="&#xe4;" d="M150 305l63 447q25 172 153 249.5t304 77.5q203 0 344 -67l-140 -1012h-71l14 121q-139 -133 -340 -133q-150 0 -249 80q-82 66 -82 186q0 24 4 51zM221 305q-3 -22 -3 -42q0 -96 66 -146q79 -61 205 -62q92 0 182.5 39t155.5 105l107 759q-102 53 -264 54 q-150 0 -259.5 -62.5t-125.5 -195.5zM471 1257q2 27 23.5 45.5t48 18.5t43 -18.5t12.5 -45t-25.5 -45t-48 -18.5t-42.5 18q-12 15 -12 35q0 4 1 10zM840 1257q2 27 23.5 45.5t48 18.5t42.5 -18q13 -15 13 -35v-11q-4 -27 -25.5 -45t-48.5 -18t-42 18q-12 15 -12 35q0 4 1 10 z" />
<glyph unicode="&#xe5;" d="M150 305l63 447q25 172 153 249.5t304 77.5q203 0 344 -67l-140 -1012h-71l14 121q-139 -133 -340 -133q-150 0 -249 80q-82 66 -82 186q0 24 4 51zM221 305q-3 -22 -3 -42q0 -96 66 -146q79 -61 205 -62q92 0 182.5 39t155.5 105l107 759q-102 53 -264 54 q-150 0 -259.5 -62.5t-125.5 -195.5zM547 1311q10 66 66.5 112.5t126 46.5t112.5 -48q35 -39 35 -89q0 -12 -2 -24q-8 -61 -65.5 -109.5t-125.5 -48.5q-70 0 -112 47q-36 40 -36 92q0 11 1 21zM608 1309q-1 -6 0 -11q0 -34 22 -60q26 -30 70.5 -30t81.5 31t41 72q1 8 1 15 q0 33 -21 58q-27 31 -72 31t-81 -31.5t-42 -74.5z" />
<glyph unicode="&#xe6;" horiz-adv-x="1683" d="M154 305l63 447q25 172 159 250.5t312 78.5q211 0 356 -102q125 96 295 96q154 0 254 -84q82 -69 82 -185q0 -26 -4 -54q-23 -162 -147.5 -249t-286.5 -87q-160 0 -295 67l-27 -178q-3 -20 -2 -39q0 -96 70 -149q84 -63 211 -64q203 0 299 135l57 -30 q-57 -82 -157.5 -127t-206.5 -45q-207 0 -295 125l-12 -111h-72l14 121q-139 -133 -340 -133q-150 0 -249 80q-82 66 -82 186q0 24 4 51zM225 305q-3 -22 -3 -42q0 -96 66 -146q79 -61 206 -62q92 0 183 39t157 105l77 544q12 102 78 183q-98 90 -307 90 q-150 0 -263.5 -64.5t-129.5 -197.5zM950 547q154 -66 305 -66q133 0 229.5 65.5t117.5 205.5q3 22 2 41q0 97 -66 153q-80 68 -207 68q-129 0 -232.5 -70t-119.5 -199z" />
<glyph unicode="&#xe7;" horiz-adv-x="901" d="M145 309l62 441q23 154 147.5 238.5t278.5 84.5q104 0 189 -40t122 -115l-63 -39q-66 121 -258 120q-125 0 -225.5 -63.5t-116.5 -181.5l-62 -445q-3 -20 -3 -39q0 -93 68 -146q81 -65 208 -65q94 0 181 41t130 115l63 -33q-53 -88 -154.5 -140t-213.5 -56l-37 -47 q24 5 46 4q52 0 86 -28q38 -32 38 -75q0 -11 -2 -22q-14 -74 -80 -114q-62 -38 -135 -38h-7q-77 2 -131 37l17 45q53 -23 125 -22q49 0 92 22.5t49 69.5q1 6 1 11q0 67 -120 67q-47 0 -71 -11l-7 6l74 97q-139 12 -225 96q-69 68 -70 173q0 25 4 52z" />
<glyph unicode="&#xe8;" horiz-adv-x="1005" d="M166 307l61 436q23 160 147 246t281 86q154 0 254 -84q82 -69 82 -185q0 -26 -4 -54q-23 -162 -147.5 -249t-286.5 -87q-158 0 -293 67l-27 -178q-3 -20 -2 -39q0 -96 70 -149q84 -63 209 -64q203 0 299 135l57 -30q-57 -82 -157.5 -127t-206.5 -45q-156 0 -257 84 q-83 69 -83 184q0 25 4 53zM268 547q154 -66 303 -66q133 0 229.5 65.5t117.5 205.5q3 22 2 41q0 97 -66 153q-80 68 -207 68q-129 0 -231.5 -70t-118.5 -199zM520 1409h117l111 -225h-78z" />
<glyph unicode="&#xe9;" horiz-adv-x="1005" d="M166 307l61 436q23 160 147 246t281 86q154 0 254 -84q82 -69 82 -185q0 -26 -4 -54q-23 -162 -147.5 -249t-286.5 -87q-158 0 -293 67l-27 -178q-3 -20 -2 -39q0 -96 70 -149q84 -63 209 -64q203 0 299 135l57 -30q-57 -82 -157.5 -127t-206.5 -45q-156 0 -257 84 q-83 69 -83 184q0 25 4 53zM268 547q154 -66 303 -66q133 0 229.5 65.5t117.5 205.5q3 22 2 41q0 97 -66 153q-80 68 -207 68q-129 0 -231.5 -70t-118.5 -199zM600 1169l164 246h113l-205 -246h-72z" />
<glyph unicode="&#xea;" horiz-adv-x="1005" d="M166 307l61 436q23 160 147 246t281 86q154 0 254 -84q82 -69 82 -185q0 -26 -4 -54q-23 -162 -147.5 -249t-286.5 -87q-158 0 -293 67l-27 -178q-3 -20 -2 -39q0 -96 70 -149q84 -63 209 -64q203 0 299 135l57 -30q-57 -82 -157.5 -127t-206.5 -45q-156 0 -257 84 q-83 69 -83 184q0 25 4 53zM268 547q154 -66 303 -66q133 0 229.5 65.5t117.5 205.5q3 22 2 41q0 97 -66 153q-80 68 -207 68q-129 0 -231.5 -70t-118.5 -199zM434 1167l232 224h90l170 -224h-76l-148 176l-190 -176h-78z" />
<glyph unicode="&#xeb;" horiz-adv-x="1005" d="M166 307l61 436q23 160 147 246t281 86q154 0 254 -84q82 -69 82 -185q0 -26 -4 -54q-23 -162 -147.5 -249t-286.5 -87q-158 0 -293 67l-27 -178q-3 -20 -2 -39q0 -96 70 -149q84 -63 209 -64q203 0 299 135l57 -30q-57 -82 -157.5 -127t-206.5 -45q-156 0 -257 84 q-83 69 -83 184q0 25 4 53zM268 547q154 -66 303 -66q133 0 229.5 65.5t117.5 205.5q3 22 2 41q0 97 -66 153q-80 68 -207 68q-129 0 -231.5 -70t-118.5 -199zM449 1270q2 27 23.5 45t48 18t43 -18.5t12 -45t-26 -45t-48 -18.5t-41.5 19q-12 15 -12 34q0 5 1 11zM817 1270 q2 27 23.5 45t48 18t43.5 -18q13 -15 13 -35q0 -5 -1 -10q-4 -27 -25.5 -45.5t-48 -18.5t-42.5 19q-12 15 -12 34q0 5 1 11z" />
<glyph unicode="&#xec;" horiz-adv-x="452" d="M182 0l148 1063h78l-148 -1063h-78zM215 1360h117l108 -225h-78z" />
<glyph unicode="&#xed;" horiz-adv-x="452" d="M182 0l148 1061h78l-148 -1061h-78zM311 1128l164 246h113l-205 -246h-72z" />
<glyph unicode="&#xee;" horiz-adv-x="491" d="M180 1112l211 219h76l145 -219h-73l-125 160l-158 -160h-76zM205 0l147 1061h78l-147 -1061h-78z" />
<glyph unicode="&#xef;" horiz-adv-x="489" d="M205 2l147 1057h82l-147 -1057h-82zM227 1255q4 27 24.5 46.5t49.5 19.5q25 0 41 -19.5t14 -46.5q-4 -27 -26.5 -46t-46.5 -19q-29 0 -44 18q-12 15 -13 36q0 5 1 11zM494 1255q4 27 24.5 46.5t47 19.5t43.5 -19q14 -16 14 -37q0 -35 -27 -57q-23 -18 -49.5 -18t-41.5 18 q-12 15 -12 36q0 5 1 11z" />
<glyph unicode="&#xf0;" horiz-adv-x="1077" d="M203 303l47 336q23 150 147 238q122 86 270 86h7q158 0 295 -72l35 248q2 18 2 34q0 141 -172 201l-76 -166q-12 4 -29.5 11.5t-23.5 9.5l71 157q-32 4 -63 4q-159 0 -267 -98l-40 45q76 72 182 102q69 19 139 19q39 0 78 -6l63 133l31 -10l25 -8l-60 -127 q109 -35 168 -111q47 -59 47 -143q0 -23 -4 -47l-155 -1098l-103 -31q-106 -29 -291 -28q-150 2 -246 87q-80 70 -81 184q0 24 4 50zM274 303q-3 -20 -2 -39q0 -91 65 -145q79 -66 202 -66q193 0 319 51l100 713q-150 70 -301 70q-123 -2 -221 -65.5t-114 -180.5z" />
<glyph unicode="&#xf1;" horiz-adv-x="1089" d="M164 0l141 1006q229 78 397 77q152 -4 250 -88q81 -69 82 -185q0 -24 -4 -50l-106 -760h-74l106 760q3 20 3 39q0 91 -66 144q-80 65 -201 65q-168 0 -323 -62l-131 -946h-74zM518 1178q41 94 137 94q27 0 78 -25.5t82 -25.5q49 0 78 45l41 -17q-16 -43 -53 -70.5 t-74 -27.5q-33 0 -88 27.5t-84 27.5q-45 0 -76 -53z" />
<glyph unicode="&#xf2;" horiz-adv-x="1030" d="M176 309l62 441q23 154 147.5 238.5t280.5 86.5q156 -2 257 -87q83 -70 83 -185q0 -26 -5 -53l-61 -441q-23 -154 -146.5 -238.5t-281.5 -86.5q-154 2 -256 87q-84 70 -84 185q0 25 4 53zM250 309q-3 -20 -3 -39q0 -94 68 -148q82 -65 207 -65q123 0 225.5 64.5 t118.5 187.5l62 441q3 20 2 39q0 94 -68 147q-82 63 -207 63t-226 -63.5t-118 -185.5zM504 1348h117l110 -226h-78z" />
<glyph unicode="&#xf3;" horiz-adv-x="1030" d="M176 309l62 441q23 154 147.5 238.5t280.5 86.5q156 -2 257 -87q83 -70 83 -185q0 -26 -5 -53l-61 -441q-23 -154 -146.5 -238.5t-281.5 -86.5q-154 2 -256 87q-84 70 -84 185q0 25 4 53zM250 309q-3 -20 -3 -39q0 -94 68 -148q82 -65 207 -65q123 0 225.5 64.5 t118.5 187.5l62 441q3 20 2 39q0 94 -68 147q-82 63 -207 63t-226 -63.5t-118 -185.5zM606 1120l164 246h113l-205 -246h-72z" />
<glyph unicode="&#xf4;" horiz-adv-x="1030" d="M176 309l62 441q23 154 147.5 238.5t280.5 86.5q156 -2 257 -87q83 -70 83 -185q0 -26 -5 -53l-61 -441q-23 -154 -146.5 -238.5t-281.5 -86.5q-154 2 -256 87q-84 70 -84 185q0 25 4 53zM250 309q-3 -20 -3 -39q0 -94 68 -148q82 -65 207 -65q123 0 225.5 64.5 t118.5 187.5l62 441q3 20 2 39q0 94 -68 147q-82 63 -207 63t-226 -63.5t-118 -185.5zM426 1120l231 217h91l170 -217h-82l-142 166l-182 -166h-86z" />
<glyph unicode="&#xf5;" horiz-adv-x="1030" d="M176 309l62 441q23 154 147.5 238.5t280.5 86.5q156 -2 257 -87q83 -70 83 -185q0 -26 -5 -53l-61 -441q-23 -154 -146.5 -238.5t-281.5 -86.5q-154 2 -256 87q-84 70 -84 185q0 25 4 53zM250 309q-3 -20 -3 -39q0 -94 68 -148q82 -65 207 -65q123 0 225.5 64.5 t118.5 187.5l62 441q3 20 2 39q0 94 -68 147q-82 63 -207 63t-226 -63.5t-118 -185.5zM473 1165q43 104 139 105q27 0 79 -29t83 -29q51 0 78 50l41 -17q-18 -47 -54 -77.5t-73 -30.5q-33 0 -88 29.5t-84 29.5q-49 0 -80 -57z" />
<glyph unicode="&#xf6;" horiz-adv-x="1030" d="M176 309l62 441q23 154 147.5 238.5t280.5 86.5q156 -2 257 -87q83 -70 83 -185q0 -26 -5 -53l-61 -441q-23 -154 -146.5 -238.5t-281.5 -86.5q-154 2 -256 87q-84 70 -84 185q0 25 4 53zM250 309q-3 -20 -3 -39q0 -94 68 -148q82 -65 207 -65q123 0 225.5 64.5 t118.5 187.5l62 441q3 20 2 39q0 94 -68 147q-82 63 -207 63t-226 -63.5t-118 -185.5zM434 1200q2 27 23.5 45.5t48 18.5t43 -18.5t12.5 -45t-24.5 -45t-47 -18.5t-43.5 18q-13 15 -13 35q0 5 1 10zM803 1200q2 27 23.5 45.5t48 18.5t43.5 -19q13 -15 13 -35q0 -5 -1 -10 q-4 -27 -24.5 -45t-47.5 -18t-43 18q-13 15 -13 35q0 5 1 10z" />
<glyph unicode="&#xf7;" horiz-adv-x="1081" d="M190 641l13 78h874l-12 -78h-875zM522 356q4 33 28.5 53.5t57.5 22.5q33 0 51.5 -21.5t14.5 -54t-28.5 -54t-57.5 -21.5t-51 21q-15 18 -16 43q0 5 1 11zM610 981q4 33 29 53.5t57 22.5q33 0 52 -22q15 -18 15 -42q0 -6 -1 -12q-4 -33 -28.5 -54.5t-57.5 -21.5t-51 22 q-15 18 -15 42q-1 6 0 12z" />
<glyph unicode="&#xf8;" horiz-adv-x="1019" d="M176 311l62 441q23 154 147.5 238.5t280.5 86.5q84 -4 163 -30l84 153q12 -6 32 -11t28 -9l-86 -158q118 -84 118 -223q0 -23 -4 -47l-61 -441q-23 -154 -146.5 -238.5t-279.5 -86.5q-82 4 -168 32l-80 -141l-53 23l78 143q-118 86 -118 222q0 22 3 46zM250 311 q-2 -17 -3 -34q0 -94 79 -166l465 868q-78 23 -136 22q-125 0 -226 -63.5t-118 -185.5zM379 84q76 -25 145 -25q123 0 224.5 64.5t117.5 187.5l62 441q2 16 2 32q0 93 -82 166z" />
<glyph unicode="&#xf9;" horiz-adv-x="1058" d="M193 305l106 756h74l-107 -756q-3 -20 -3 -39q0 -91 67 -144q80 -65 200 -65q172 0 324 62l131 942h74l-139 -1002q-233 -78 -400 -77q-152 4 -250 89q-81 70 -81 185q0 23 4 49zM545 1346h117l108 -226h-78z" />
<glyph unicode="&#xfa;" horiz-adv-x="1058" d="M193 305l106 756h74l-107 -756q-3 -20 -3 -39q0 -91 67 -144q80 -65 200 -65q172 0 324 62l131 942h74l-139 -1002q-233 -78 -400 -77q-152 4 -250 89q-81 70 -81 185q0 23 4 49zM616 1092l164 245h113l-205 -245h-72z" />
<glyph unicode="&#xfb;" horiz-adv-x="1058" d="M193 305l106 756h74l-107 -756q-3 -20 -3 -39q0 -91 67 -144q80 -65 200 -65q172 0 324 62l131 942h74l-139 -1002q-233 -78 -400 -77q-152 4 -250 89q-81 70 -81 185q0 23 4 49zM449 1130l231 224h90l170 -224h-76l-147 177l-191 -177h-77z" />
<glyph unicode="&#xfc;" horiz-adv-x="1058" d="M193 305l106 756h74l-107 -756q-3 -20 -3 -39q0 -91 67 -144q80 -65 200 -65q172 0 324 62l131 942h74l-139 -1002q-233 -78 -400 -77q-152 4 -250 89q-81 70 -81 185q0 23 4 49zM461 1239q2 27 23.5 45.5t48 18.5t43 -18.5t12.5 -45.5t-25.5 -45t-48.5 -18t-42 18 q-12 15 -12 34q0 5 1 11zM829 1239q2 27 23.5 45.5t48.5 18.5t43 -19q13 -15 13 -35q0 -5 -1 -10q-4 -27 -25.5 -45t-48 -18t-41.5 18q-12 15 -12 34q-1 5 0 11z" />
<glyph unicode="&#xfd;" horiz-adv-x="1062" d="M174 -248l53 45q82 -74 216 -88q25 -3 49 -2q107 0 201 51q116 63 134 193l17 110q-166 -76 -316 -75h-7q-151 0 -250 85q-83 71 -83 184q0 25 5 52l104 752h74l-105 -752q-3 -22 -3 -42q0 -88 65 -140q80 -63 204 -68q131 2 308 70l14 10l129 922h72l-156 -1106 q-23 -154 -142.5 -233.5t-275.5 -79.5q-205 -1 -307 112zM625 1120l163 246h113l-205 -246h-71z" />
<glyph unicode="&#xfe;" horiz-adv-x="1056" d="M106 -381l259 1829h73l-59 -416q166 41 321 41q154 -2 253 -89q82 -72 83 -189q0 -24 -4 -50l-61 -434q-23 -152 -150 -239q-124 -86 -271 -86h-7q-182 4 -301 63l-62 -430h-74zM252 129q147 -68 305 -68q125 2 223.5 65.5t114.5 180.5l61 438q3 23 4 44q0 89 -64 142 q-79 65 -206 64q-190 0 -321 -43z" />
<glyph unicode="&#xff;" horiz-adv-x="1062" d="M174 -248l53 45q82 -74 216 -88q25 -3 49 -2q107 0 201 51q116 63 134 193l17 110q-166 -76 -316 -75h-7q-151 0 -250 85q-83 71 -83 184q0 25 5 52l104 752h74l-105 -752q-3 -22 -3 -42q0 -88 65 -140q80 -63 204 -68q131 2 308 70l14 10l129 922h72l-156 -1106 q-23 -154 -142.5 -233.5t-275.5 -79.5q-205 -1 -307 112zM469 1257q2 27 23.5 45.5t48 18.5t43 -18.5t12.5 -45t-25.5 -45t-48 -18.5t-42.5 18q-12 15 -12 35q0 4 1 10zM838 1257q2 27 23.5 45.5t48 18.5t42.5 -18q13 -15 13 -35v-11q-4 -27 -25.5 -45t-48.5 -18t-42 18 q-12 15 -12 35q0 4 1 10z" />
<glyph unicode="&#x152;" horiz-adv-x="1914" d="M199 420l88 618q18 133 113.5 232.5t223.5 144.5t271 47q172 0 293 -88l10 76h825l-10 -74h-745l-86 -614h682l-11 -76h-682l-86 -610h746l-10 -76h-826l9 68q-154 -76 -310 -76h-16q-219 4 -364 118q-120 95 -120 247q0 30 5 63zM279 420q-3 -25 -4 -48q0 -130 108 -208 q127 -92 317 -92q160 0 316 75l162 1158q-140 78 -286 77h-7q-195 0 -345.5 -88t-172.5 -256z" />
<glyph unicode="&#x153;" horiz-adv-x="1705" d="M176 309l62 441q23 154 147.5 238.5t280.5 86.5q111 -2 197.5 -48t121.5 -130q59 86 160.5 132t212.5 46q154 0 254 -84q82 -69 82 -185q0 -26 -4 -54q-23 -162 -148 -249t-287 -87q-160 0 -292 65q-27 -178 -29 -202v-11q0 -105 78 -158q82 -56 200 -57q203 0 299 135 l58 -30q-57 -82 -157.5 -127t-207.5 -45q-111 0 -200 45t-123 129q-57 -84 -157.5 -129t-211.5 -47q-154 2 -256 87q-84 70 -84 185q0 25 4 53zM250 309q-3 -20 -3 -39q0 -94 68 -148q82 -65 207 -65q123 0 225.5 64.5t118.5 187.5l62 441q3 20 2 39q0 94 -68 147 q-82 63 -207 63t-226 -63.5t-118 -185.5zM973 545q145 -63 301 -64q133 0 229 65.5t117 205.5q3 22 3 41q0 97 -67 153q-80 68 -206 68q-121 0 -219.5 -62.5t-126.5 -177.5q0 -16 -3 -24z" />
<glyph unicode="&#x178;" horiz-adv-x="993" d="M137 1450h92l324 -805l547 805h94l-612 -877l-80 -573h-80l80 573zM406 1595q2 27 23.5 45.5t48 18.5t43 -18.5t11.5 -45.5q-2 -27 -23.5 -45t-48 -18t-42.5 18q-13 15 -13 35q0 5 1 10zM838 1595q2 27 23.5 45.5t48 18.5t42.5 -19q13 -15 13 -34v-11q-2 -27 -23.5 -45 t-48.5 -18t-43 18q-13 15 -13 35q0 5 1 10z" />
<glyph unicode="&#x2c6;" horiz-adv-x="536" d="M188 1227l232 223h90l170 -223h-76l-147 176l-191 -176h-78z" />
<glyph unicode="&#x2dc;" horiz-adv-x="555" d="M227 1348q43 96 154 96q31 0 90 -26.5t94 -26.5q55 0 88 47l45 -17q-18 -43 -59 -71.5t-82 -28.5q-37 0 -100.5 27.5t-96.5 27.5q-51 0 -88 -53z" />
<glyph unicode="&#x2013;" horiz-adv-x="1024" d="M139 575l11 76h909l-10 -76h-910z" />
<glyph unicode="&#x2014;" horiz-adv-x="1884" d="M125 575l10 76h1794l-10 -76h-1794z" />
<glyph unicode="&#x2018;" horiz-adv-x="448" d="M272 1061q35 72 99.5 192.5t99.5 196.5h74l-170 -389h-103z" />
<glyph unicode="&#x2019;" horiz-adv-x="466" d="M270 1059l172 391h107q-35 -76 -101.5 -198t-101.5 -193h-76z" />
<glyph unicode="&#x201a;" horiz-adv-x="499" d="M66 -262l163 344h105l-191 -344h-77z" />
<glyph unicode="&#x201c;" horiz-adv-x="704" d="M274 1059l189 391h78l-160 -391h-107zM535 1059l188 391h78l-160 -391h-106z" />
<glyph unicode="&#x201d;" horiz-adv-x="788" d="M322 1061l147 389h102l-176 -389h-73zM575 1061l148 389h102l-176 -389h-74z" />
<glyph unicode="&#x201e;" horiz-adv-x="835" d="M106 -262l166 364h107q-33 -66 -96.5 -180.5t-98.5 -183.5h-78zM365 -262l165 364h107q-33 -66 -96.5 -180.5t-98.5 -183.5h-77z" />
<glyph unicode="&#x2022;" horiz-adv-x="739" d="M223 725q14 92 90 158.5t168 66.5t149.5 -66.5t43.5 -158.5q-12 -92 -88 -158.5t-168 -66.5t-149.5 66.5t-45.5 158.5z" />
<glyph unicode="&#x2026;" horiz-adv-x="1437" d="M170 86q8 51 47 85t90 34t80 -34q22 -26 22 -63q0 -11 -1 -22q-6 -51 -45 -85t-90.5 -34t-79.5 34q-24 28 -24 67q0 9 1 18zM190 86q6 41 39 69.5t74 28.5t66 -28q20 -23 19 -54q0 -8 -1 -16q-4 -41 -37 -69.5t-73.5 -28.5t-65.5 28q-21 25 -21 59q-1 5 0 11zM211 86 q-1 -6 -1 -11q0 -26 16 -44q19 -23 52 -23t58.5 22.5t30 55.5t-14 55.5t-51.5 22.5t-59.5 -22.5t-30.5 -55.5zM598 86q8 51 47 85t90 34t80 -34q22 -26 22 -63q0 -11 -1 -22q-6 -51 -45 -85t-90.5 -34t-79.5 34q-24 28 -24 67q0 9 1 18zM618 86q6 41 39 69.5t74 28.5t66 -28 q20 -23 19 -54q0 -8 -1 -16q-4 -41 -37 -69.5t-73.5 -28.5t-65.5 28q-21 25 -21 59q-1 5 0 11zM639 86q-1 -6 -1 -11q0 -26 16 -44q19 -23 52 -23t59 22.5t30 55.5t-14.5 55.5t-51.5 22.5t-59.5 -22.5t-30.5 -55.5zM1024 86q8 51 47 85t90 34t80 -34q22 -26 22 -63 q0 -11 -1 -22q-6 -51 -45 -85t-90.5 -34t-79.5 34q-24 28 -24 67q0 9 1 18zM1044 86q6 41 39 69.5t74 28.5t66 -28q20 -23 19 -54q0 -8 -1 -16q-4 -41 -37 -69.5t-73.5 -28.5t-65.5 28q-21 25 -21 59q-1 5 0 11zM1065 86q-1 -6 -1 -11q0 -26 16 -44q19 -23 52 -23t59 22.5 t30 55.5q1 6 0 12q0 25 -15 43q-18 23 -51 23t-59.5 -22.5t-30.5 -55.5z" />
<glyph unicode="&#x2039;" horiz-adv-x="530" d="M180 604l318 389l30 -21l27 -20l-289 -348l189 -348q-16 -8 -36 -20.5t-32 -18.5z" />
<glyph unicode="&#x203a;" horiz-adv-x="557" d="M168 256l289 348l-189 348q16 8 36 20.5t32 18.5l207 -387l-318 -389l-30 22z" />
<glyph unicode="&#x20ac;" horiz-adv-x="1179" d="M135 598q6 23 21 66h118l17 120h-125l22 66h113l25 176q27 199 185.5 312.5t352.5 113.5q139 0 249 -59.5t155 -173.5l-78 -37q-37 96 -128 142t-208 46q-164 0 -296 -92t-155 -252l-24 -176h551l-23 -66h-538l-17 -120h551q-6 -14 -10 -37t-6 -29h-543l-27 -176 q-4 -29 -4 -55q0 -123 86 -197q104 -90 267 -90q119 0 225 47t170 141l67 -37q-76 -115 -204.5 -174t-270.5 -59q-193 0 -316 112q-102 92 -102 244q0 33 5 68l26 176h-131z" />
<glyph unicode="&#x2122;" horiz-adv-x="1683" d="M240 1391l8 59h598l-8 -59h-267l-98 -699h-65l98 699h-266zM879 692l106 758h92l189 -594l356 594h92l-106 -758h-66l107 694l-359 -598h-65l-191 586l-46 -343t-46 -339h-63z" />
<glyph unicode="&#xe000;" horiz-adv-x="1060" d="M0 1060h1060v-1060h-1060v1060z" />
<glyph unicode="&#xfb01;" horiz-adv-x="946" d="M37 -307q78 63 98 196l176 1248q20 147 119.5 230t239.5 91l-11 -69q-113 -4 -188.5 -70t-89.5 -182l-37 -254h229l-10 -70h-229l-129 -924q-20 -154 -135 -243zM688 -2l150 1065h73l-149 -1065h-74zM872 1431q25 22 53.5 21.5t47.5 -21.5q15 -18 15 -40q0 -5 -1 -11 q-2 -29 -27.5 -50t-54 -21t-47.5 21q-15 18 -15 40q0 35 29 61z" />
<glyph unicode="&#xfb02;" horiz-adv-x="1011" d="M37 -307q78 63 98 196l176 1248q20 147 119.5 230t239.5 91l-11 -69q-113 -4 -188.5 -70t-89.5 -182l-37 -254h229l-10 -70h-229l-129 -924q-20 -154 -135 -243zM729 309l160 1141h74l-160 -1141q-5 -35 -5 -64q0 -178 179 -177l-10 -74q-243 9 -244 239q0 35 6 76z" />
<glyph unicode="&#xfb03;" horiz-adv-x="1513" d="M35 -307q78 63 98 196l176 1248q20 147 119.5 230t239.5 91l-11 -69q-113 -4 -188.5 -70t-89.5 -182l-37 -254h229l-10 -70h-229l-129 -924q-20 -154 -135 -243zM571 -307q78 63 99 196l176 1248q20 147 119.5 230t238.5 91l-10 -69q-113 -4 -188.5 -70t-90.5 -182 l-36 -254h229l-10 -70h-230l-129 -924q-20 -154 -135 -243zM1255 -2l150 1065h74l-150 -1065h-74zM1438 1414q25 22 53.5 22t46.5 -22q15 -18 15 -40q0 -5 -1 -10q-4 -29 -28.5 -50.5t-53 -21.5t-47.5 22q-15 18 -15 40q1 34 30 60z" />
<glyph unicode="&#xfb04;" horiz-adv-x="1548" d="M35 -307q78 63 98 196l176 1248q20 147 119.5 230t239.5 91l-11 -69q-113 -4 -188.5 -70t-89.5 -182l-37 -254h229l-10 -70h-229l-129 -924q-20 -154 -135 -243zM571 -307q78 63 99 196l176 1248q20 147 119.5 230t238.5 91l-10 -69q-113 -4 -188.5 -70t-90.5 -182 l-36 -254h229l-10 -70h-230l-129 -924q-20 -154 -135 -243zM1268 309l159 1141h74l-160 -1141q-5 -35 -5 -64q0 -178 180 -177l-11 -74q-243 9 -243 239q0 35 6 76z" />
</font>
</defs>
</svg>
